<?xml version="1.0" standalone="no"?>
<!DOCTYPE svg PUBLIC "-//W3C//DTD SVG 20010904//EN"
 "http://www.w3.org/TR/2001/REC-SVG-20010904/DTD/svg10.dtd">
<svg version="1.0" xmlns="http://www.w3.org/2000/svg"
 width="1024.000000pt" height="1024.000000pt" viewBox="0 0 1024.000000 1024.000000"
 preserveAspectRatio="xMidYMid meet">

<g transform="translate(0.000000,1024.000000) scale(0.100000,-0.100000)"
fill="#000000" stroke="none">
<path d="M5590 9674 c-53 -12 -383 -70 -1115 -194 -192 -33 -489 -84 -660
-114 l-310 -54 -175 -180 -175 -180 -185 -51 c-102 -29 -276 -77 -388 -109
l-203 -57 -435 -447 -435 -448 -169 -572 c-92 -315 -214 -730 -270 -923 -56
-192 -132 -453 -169 -580 l-68 -230 9 -335 c4 -184 12 -492 18 -685 l9 -350
69 -285 c38 -157 90 -364 115 -460 25 -96 59 -233 76 -305 31 -128 33 -133
148 -325 173 -290 447 -736 607 -988 l141 -224 355 -241 c195 -133 469 -316
607 -407 139 -91 374 -245 522 -343 l270 -178 288 76 c271 72 674 183 1638
450 620 172 1518 423 1579 440 48 14 63 26 142 113 118 130 906 987 1211 1319
l243 263 116 382 c63 211 160 527 214 703 54 176 116 376 137 445 44 145 44
122 23 794 l-12 380 -350 875 -350 876 -242 370 c-133 204 -298 454 -367 556
-146 220 -54 150 -744 567 -258 156 -476 289 -483 294 -8 8 -88 9 -246 4
l-233 -7 -324 190 c-203 120 -333 190 -349 190 -14 -1 -50 -7 -80 -15z m181
-218 c52 -30 281 -160 509 -290 228 -130 415 -238 417 -240 3 -3 -348 -97
-362 -96 -5 0 -59 30 -120 67 -60 36 -240 145 -400 241 l-290 175 -240 -37
c-132 -21 -467 -73 -745 -117 l-505 -80 -275 -279 -275 -280 -250 -8 c-137 -5
-251 -8 -253 -7 -3 2 416 453 533 572 l80 82 215 37 c118 20 577 98 1020 174
443 76 815 138 826 139 12 1 64 -23 115 -53z m1024 -330 c71 -40 790 -477 798
-486 11 -10 -51 -28 -303 -86 -133 -30 -205 -43 -208 -36 -4 12 -236 484 -246
500 -3 5 -55 37 -116 71 -60 35 -110 65 -110 68 0 15 148 -10 185 -31z m-1093
-142 c139 -86 282 -175 318 -198 l65 -43 75 -164 c41 -90 100 -219 132 -285
31 -67 59 -126 60 -132 2 -5 -75 -110 -171 -233 -96 -123 -175 -225 -176 -227
-4 -5 -155 -32 -628 -112 l-462 -78 -360 178 -360 177 -155 323 c-85 178 -155
327 -155 330 0 4 95 104 211 223 l211 217 554 89 c305 49 561 89 571 90 9 1
130 -69 270 -155z m1279 -635 c137 -276 248 -504 245 -507 -9 -8 -469 98 -483
112 -13 13 -376 796 -371 801 2 2 82 24 178 48 96 25 176 46 177 46 2 1 116
-224 254 -500z m-4122 284 l-74 -78 -35 -179 -35 -179 -88 194 c-48 107 -87
199 -87 205 0 7 69 30 153 53 83 23 163 46 177 51 64 22 62 10 -11 -67z m-439
-135 c0 -7 59 -150 131 -318 162 -377 161 -376 145 -389 -12 -10 -272 -113
-624 -246 l-193 -73 -66 101 c-35 56 -79 124 -97 152 l-33 50 361 367 c198
203 364 368 368 368 4 0 8 -6 8 -12z m5685 -428 c237 -353 289 -436 276 -441
-9 -4 -55 -14 -101 -23 -47 -9 -210 -44 -363 -78 -152 -34 -279 -59 -281 -57
-22 24 -480 889 -473 895 6 7 614 142 631 141 13 -1 111 -140 311 -437z
m-4539 158 c59 -117 154 -310 211 -428 l103 -215 -153 -147 -152 -146 -285
566 -285 567 120 5 c66 3 168 7 227 8 l106 2 108 -212z m-310 -621 l206 -437
-38 -245 c-21 -135 -42 -245 -46 -245 -4 0 -8 5 -8 10 0 15 -300 648 -448 947
l-71 143 25 267 c13 148 24 275 25 283 1 19 97 -177 355 -723z m3716 197 l247
-57 -87 -106 c-185 -227 -465 -567 -476 -579 -10 -10 -47 20 -179 148 l-166
161 112 132 c62 73 153 183 202 244 50 62 92 112 95 113 3 0 116 -25 252 -56z
m-3983 -675 c133 -275 241 -502 239 -503 -13 -8 -796 -216 -815 -216 -10 0
-462 882 -465 907 0 5 62 32 138 62 218 85 648 249 654 250 3 1 115 -224 249
-500z m-1290 344 c47 -69 62 -99 57 -115 -6 -27 -220 -724 -439 -1438 -86
-278 -165 -538 -177 -577 -11 -40 -25 -73 -29 -73 -4 0 -36 52 -71 116 l-63
116 87 266 c47 147 135 438 195 647 59 209 162 563 227 786 113 389 119 406
134 385 9 -11 45 -63 79 -113z m2643 -152 c223 -109 415 -202 427 -206 11 -3
21 -10 21 -14 0 -9 -101 -395 -104 -398 -4 -5 -1066 526 -1066 532 0 4 24 28
53 54 48 44 261 230 263 231 1 0 183 -90 406 -199z m4233 -103 c48 -150 88
-278 89 -284 1 -13 -100 -96 -303 -248 -118 -89 -145 -106 -156 -95 -77 86
-554 696 -555 711 0 6 234 64 455 113 66 14 167 36 225 49 172 39 143 68 245
-246z m-2190 -45 c85 -81 155 -149 155 -152 0 -4 -75 -19 -167 -35 -151 -25
-1482 -266 -1560 -282 l-31 -6 47 188 c28 112 53 191 62 195 8 4 282 56 609
114 327 58 613 110 635 114 89 19 84 22 250 -136z m1184 -53 c56 -66 203 -247
328 -402 183 -229 223 -284 207 -287 -162 -29 -1025 -214 -1056 -226 -8 -3
-54 30 -107 77 -52 46 -108 95 -125 109 l-30 26 70 84 c39 46 152 186 252 311
167 209 350 428 357 428 2 0 49 -54 104 -120z m-5544 -300 c87 -168 188 -361
225 -430 l67 -125 -24 -48 c-13 -27 -139 -308 -279 -625 -558 -1258 -506
-1147 -522 -1115 -8 15 -80 143 -160 283 -80 140 -145 260 -144 265 0 6 26 84
57 175 60 177 268 839 465 1480 66 217 126 410 132 428 5 19 14 30 18 25 5 -4
79 -145 165 -313z m1923 90 c366 -184 668 -342 683 -357 9 -10 17 -503 7 -503
-18 0 -1109 501 -1130 519 -7 6 72 521 80 521 2 0 164 -81 360 -180z m2656
-72 c3 -18 12 -94 21 -168 8 -74 18 -156 21 -181 5 -40 4 -48 -12 -53 -21 -6
-561 -116 -1330 -270 l-511 -102 -7 235 c-3 129 -3 237 1 241 5 3 260 53 568
110 308 56 700 129 870 160 171 32 324 59 341 59 28 1 32 -3 38 -31z m2274
-303 c122 -299 304 -766 300 -769 -29 -23 -321 -196 -325 -192 -7 7 -29 292
-53 671 -11 182 -23 375 -26 430 -4 69 -3 97 4 90 6 -5 51 -109 100 -230z
m-5540 -57 c18 -24 225 -897 220 -928 -3 -16 -26 -12 -238 40 -129 32 -280 65
-335 75 -55 9 -103 19 -107 21 -4 3 -51 69 -104 147 -53 78 -144 203 -201 278
-56 75 -103 138 -103 142 0 7 64 26 320 93 113 29 275 73 360 98 177 51 174
50 188 34z m310 -147 c172 -78 976 -450 992 -459 14 -8 114 -172 108 -176 -2
-2 -86 -19 -188 -40 -102 -21 -327 -69 -500 -107 -173 -38 -320 -69 -326 -69
-6 0 -25 64 -43 148 -80 378 -157 752 -154 752 2 0 51 -22 111 -49z m3137
-105 c50 -46 88 -86 85 -89 -5 -5 -257 -61 -1290 -283 -344 -74 -632 -137
-641 -139 -11 -4 -26 20 -61 99 l-46 104 262 51 c655 129 1492 303 1539 320
29 10 54 19 57 19 3 1 46 -36 95 -82z m1451 36 c73 -132 383 -681 585 -1035
132 -230 239 -420 239 -422 0 -6 -297 -75 -323 -75 -17 0 -60 32 -138 101 -63
56 -206 179 -319 272 -113 94 -251 211 -308 260 l-103 89 -367 -11 c-202 -6
-420 -13 -484 -16 -92 -4 -118 -3 -118 7 0 19 148 619 153 625 3 2 241 54 529
114 287 61 539 114 558 119 64 15 74 12 96 -28z m-5656 -403 c96 -143 176
-266 178 -274 3 -12 -863 -1755 -872 -1755 -7 0 -141 211 -220 346 l-77 132
62 133 c205 447 643 1433 719 1622 13 31 26 57 29 57 3 -1 85 -118 181 -261z
m4294 107 c-3 -8 -31 -131 -63 -275 -32 -144 -61 -264 -65 -268 -3 -4 -41 -12
-84 -19 -42 -7 -277 -47 -522 -88 -415 -71 -462 -81 -695 -151 -329 -97 -335
-99 -338 -94 -2 2 -26 115 -54 251 -43 216 -48 248 -34 252 22 6 411 92 1091
241 316 70 611 135 655 145 100 23 116 24 109 6z m-2035 -443 c49 -182 121
-507 114 -514 -5 -5 -164 -83 -353 -175 -190 -91 -431 -208 -536 -258 l-191
-93 -114 -134 c-271 -319 -445 -521 -665 -775 l-235 -271 -167 -46 c-225 -62
-253 -69 -258 -64 -3 2 49 90 115 195 66 105 198 321 294 479 96 158 228 374
293 478 66 105 225 366 354 581 l235 391 500 112 c275 61 514 115 530 120 60
18 73 14 84 -26z m-1665 -58 c144 -31 296 -63 339 -72 42 -9 77 -19 77 -22 0
-4 -37 -65 -81 -137 -78 -123 -446 -731 -797 -1314 -171 -284 -304 -501 -403
-653 l-57 -88 -47 87 c-27 48 -91 162 -143 253 l-94 166 141 275 c78 151 287
564 463 918 177 353 326 642 331 642 6 0 127 -25 271 -55z m4266 -222 c-5 -21
-31 -145 -59 -277 l-50 -238 -147 -242 c-81 -132 -199 -328 -263 -435 l-116
-194 -299 -271 c-164 -149 -360 -326 -435 -394 -75 -68 -145 -130 -156 -137
-11 -7 -185 -74 -386 -149 -201 -74 -469 -174 -595 -221 l-229 -87 -260 6
c-143 4 -392 11 -554 17 l-293 9 -127 54 c-69 30 -218 91 -331 137 -113 45
-208 85 -213 89 -4 3 5 71 19 151 l27 144 80 90 c138 156 315 359 622 715
l297 345 371 178 c752 360 696 336 1027 440 l305 96 540 98 c589 106 582 105
1086 111 l147 2 -8 -37z m-6154 -589 l154 -291 -1 -304 c-1 -167 -4 -376 -8
-463 l-6 -159 -191 329 c-105 181 -198 343 -207 359 -16 32 -28 276 -42 870
l-6 240 76 -145 c42 -80 146 -276 231 -436z m7900 11 c-10 -28 -275 -918 -360
-1213 l-84 -293 -95 -102 c-52 -56 -170 -185 -262 -287 -93 -102 -320 -349
-504 -550 -185 -200 -389 -423 -455 -495 -65 -71 -133 -145 -150 -162 -29 -30
-58 -40 -381 -128 -192 -53 -557 -154 -810 -225 -529 -148 -1037 -287 -1545
-425 -195 -53 -439 -119 -543 -146 l-187 -51 -193 127 c-140 93 -1429 958
-1444 969 -1 1 29 249 67 551 37 303 74 601 82 663 l13 113 247 63 c137 34
248 61 248 59 0 -2 -25 -141 -55 -311 -84 -475 -136 -794 -133 -812 3 -15 298
-261 709 -590 85 -68 180 -146 212 -173 l57 -49 523 11 c287 6 664 14 837 17
l315 6 345 130 c190 72 478 179 640 239 162 60 337 126 387 145 88 34 111 50
475 336 211 165 439 343 509 394 94 71 136 109 169 156 105 150 288 391 486
640 144 181 216 280 223 306 30 114 46 182 100 432 33 151 74 343 92 426 l32
152 131 26 c72 15 167 35 211 45 101 24 98 24 91 6z m-1641 -192 c55 -70 189
-244 298 -387 109 -144 250 -327 312 -408 l114 -148 -123 -167 c-67 -93 -193
-265 -280 -383 -86 -118 -161 -216 -165 -218 -4 -1 -25 23 -46 55 -72 108
-247 347 -482 656 l-234 308 157 257 c86 141 198 325 248 409 50 83 93 152 96
152 3 0 50 -57 105 -126z m-5797 -658 l82 -131 -11 -344 c-6 -190 -13 -392
-17 -450 l-7 -105 -101 170 c-56 94 -109 184 -118 202 -18 37 -21 183 -9 655
l6 278 46 -73 c26 -39 84 -131 129 -202z m5224 -297 c142 -179 402 -524 542
-721 84 -117 97 -140 85 -151 -8 -8 -209 -165 -446 -349 l-433 -336 -18 27
c-11 15 -90 140 -177 277 -87 138 -225 350 -307 473 -82 123 -150 227 -151
231 -1 5 63 66 143 136 80 71 215 192 300 270 224 205 324 294 332 295 5 0 63
-69 130 -152z m-974 -671 c17 -30 113 -181 215 -338 195 -299 387 -607 387
-619 0 -8 -79 -37 -735 -272 -549 -196 -587 -209 -589 -206 -5 7 -122 271
-204 458 -49 113 -130 294 -180 403 -49 108 -89 197 -89 197 1 0 259 97 572
214 314 118 575 215 582 215 6 1 25 -23 41 -52z m-1636 -393 l306 -6 75 -167
c42 -91 141 -310 220 -486 141 -311 177 -393 177 -401 0 -2 -247 -4 -550 -4
l-549 0 -10 33 c-5 17 -86 257 -180 532 -94 275 -171 503 -171 507 0 3 84 4
188 2 103 -2 325 -7 494 -10z"/>
</g>
</svg>
