<?xml version="1.0" standalone="no"?>
<!DOCTYPE svg PUBLIC "-//W3C//DTD SVG 20010904//EN"
 "http://www.w3.org/TR/2001/REC-SVG-20010904/DTD/svg10.dtd">
<svg version="1.0" xmlns="http://www.w3.org/2000/svg"
 width="1024.000000pt" height="1024.000000pt" viewBox="0 0 1024.000000 1024.000000"
 preserveAspectRatio="xMidYMid meet">

<g transform="translate(0.000000,1024.000000) scale(0.100000,-0.100000)"
fill="#000000" stroke="none">
<path d="M3797 9032 l-427 -427 0 -752 0 -751 200 -193 c110 -106 200 -196
200 -200 0 -4 -100 -86 -222 -182 -290 -225 -366 -284 -588 -458 -102 -80
-264 -205 -360 -278 -96 -74 -232 -179 -302 -235 l-127 -101 -1 -1300 0 -1299
967 -968 968 -968 1020 0 1020 0 475 478 c261 262 696 700 967 972 l493 495 0
1292 0 1292 -72 59 c-75 60 -362 282 -1038 802 -212 163 -413 318 -448 345
l-63 49 211 204 210 204 0 741 0 742 -432 432 -433 433 -895 0 -895 0 -428
-428z m1915 -59 c14 -16 162 -163 328 -328 l304 -300 3 -500 2 -500 -328 -329
-329 -329 -573 2 -574 2 -327 327 -328 327 0 501 0 502 38 32 c20 18 171 165
334 326 l297 294 564 0 564 0 25 -27z m-592 -2833 l775 0 112 112 112 112 23
-21 c49 -43 463 -397 667 -568 118 -99 294 -247 391 -330 96 -82 222 -188 278
-235 l102 -84 0 -1029 0 -1028 -27 3 -26 3 -59 350 c-32 193 -99 599 -148 904
-50 305 -93 558 -96 562 -3 5 -130 114 -282 242 -152 129 -414 351 -582 495
l-304 262 -932 0 -931 0 -259 -219 c-143 -121 -407 -345 -589 -498 l-330 -279
-23 -139 c-12 -77 -72 -448 -132 -825 -150 -931 -136 -860 -171 -860 l-29 0 0
1029 0 1029 333 278 c417 349 867 728 1016 857 l115 98 110 -110 111 -111 775
0z m873 -828 c68 -63 625 -548 718 -625 35 -30 60 -59 63 -75 4 -15 44 -270
91 -567 88 -554 112 -704 120 -741 5 -24 -34 -77 -429 -584 -126 -162 -328
-422 -449 -577 l-220 -283 -766 0 -766 1 -225 291 c-124 161 -274 355 -334
432 -279 359 -515 665 -526 683 -11 16 -4 74 39 334 75 460 151 937 158 990 4
37 12 51 42 75 44 34 588 505 719 621 l94 83 804 0 805 0 62 -58z"/>
</g>
</svg>
