<?xml version="1.0" standalone="no"?>
<!DOCTYPE svg PUBLIC "-//W3C//DTD SVG 20010904//EN"
 "http://www.w3.org/TR/2001/REC-SVG-20010904/DTD/svg10.dtd">
<svg version="1.0" xmlns="http://www.w3.org/2000/svg"
 width="1024.000000pt" height="1024.000000pt" viewBox="0 0 1024.000000 1024.000000"
 preserveAspectRatio="xMidYMid meet">

<g transform="translate(0.000000,1024.000000) scale(0.100000,-0.100000)"
fill="#000000" stroke="none">
<path d="M3997 9432 l-177 -177 0 -390 0 -389 125 -126 125 -127 0 -441 0
-442 80 0 80 0 0 -109 0 -108 -272 -216 c-150 -119 -334 -265 -408 -324 l-135
-108 -3 -2745 -2 -2745 182 -182 183 -183 1361 0 1361 0 177 181 176 180 0
2747 0 2747 -83 66 c-45 36 -199 157 -342 269 -143 112 -290 227 -327 257
l-68 54 0 109 0 110 80 0 80 0 0 438 0 437 130 130 130 130 0 390 0 390 -177
177 -178 178 -960 0 -960 0 -178 -178z m2001 -266 l62 -64 0 -249 0 -248 -148
-148 -147 -147 -63 0 -62 0 0 280 0 280 -510 0 -510 0 0 -280 0 -280 -63 0
-63 0 -142 144 -142 144 0 251 0 250 61 66 61 65 803 0 802 0 61 -64z m-1478
-1436 l0 -190 -80 0 -80 0 0 190 0 190 80 0 80 0 0 -190z m489 0 l-2 -190 -83
0 -84 0 0 190 0 190 86 0 85 0 -2 -190z m471 0 l0 -190 -80 0 -80 0 0 190 0
190 80 0 80 0 0 -190z m470 0 l0 -190 -80 0 -80 0 0 190 0 190 80 0 80 0 0
-190z m-147 -497 l-2 -108 -676 -3 -675 -2 0 110 0 110 678 0 677 0 -2 -107z
m657 -858 l0 -105 -1315 0 c-723 0 -1318 -1 -1322 -2 -5 -2 -9 45 -11 105 l-3
107 1326 0 1325 0 0 -105z m-1924 -867 c319 -376 588 -688 594 -688 12 0 79
76 390 443 l285 337 173 0 172 0 -1 -1422 -1 -1423 -234 -215 c-130 -118 -357
-328 -506 -467 l-272 -251 -52 46 c-54 49 -354 324 -741 680 l-223 204 0 1424
0 1424 169 0 168 0 79 -92z"/>
</g>
</svg>
