<?xml version="1.0" standalone="no"?>
<!DOCTYPE svg PUBLIC "-//W3C//DTD SVG 20010904//EN"
 "http://www.w3.org/TR/2001/REC-SVG-20010904/DTD/svg10.dtd">
<svg version="1.0" xmlns="http://www.w3.org/2000/svg"
 width="1024.000000pt" height="1024.000000pt" viewBox="0 0 1024.000000 1024.000000"
 preserveAspectRatio="xMidYMid meet">

<g transform="translate(0.000000,1024.000000) scale(0.100000,-0.100000)"
fill="#000000" stroke="none">
<path d="M4349 9896 c-70 -35 -133 -66 -140 -68 -12 -4 -15 -91 -19 -488 l-5
-484 -235 -104 c-129 -57 -254 -111 -277 -120 l-43 -16 0 -417 0 -417 94 -58
c52 -32 94 -59 93 -60 -5 -4 -418 -288 -704 -483 l-313 -214 0 -2733 0 -2732
55 -114 c31 -62 91 -201 133 -308 l78 -195 90 -61 c49 -33 236 -160 417 -282
l327 -222 1048 0 1047 0 763 381 762 382 -222 117 c-123 65 -306 163 -408 218
l-185 100 -3 2679 -3 2678 -112 77 c-220 151 -893 619 -922 642 -27 21 -29 26
-20 52 7 21 25 36 62 54 43 21 53 30 55 54 3 28 18 37 336 195 l332 165 0 262
0 263 -80 283 c-43 156 -105 376 -137 490 l-58 206 -345 171 -345 171 -495 -1
-495 0 -126 -63z m1286 -138 l173 -93 -126 -5 c-70 -3 -353 -7 -629 -8 l-502
-3 -94 63 -94 63 61 37 61 37 488 1 489 0 173 -92z m-1197 -154 l52 -34 0
-511 c0 -281 -3 -509 -8 -507 -4 2 -48 25 -97 52 l-90 49 3 501 c1 276 2 507
2 514 0 14 53 -11 138 -64z m1042 -251 l0 -148 119 -113 c138 -129 115 -79
216 -473 36 -140 65 -269 65 -286 0 -29 -5 -35 -50 -58 -27 -14 -54 -25 -61
-25 -8 0 -10 44 -8 154 l4 153 -326 167 -326 166 -182 0 -181 0 0 305 0 305
365 0 365 0 0 -147z m386 -18 c13 -38 64 -214 114 -390 50 -176 102 -354 116
-395 21 -66 24 -94 24 -227 l0 -152 -52 -23 c-29 -12 -100 -45 -158 -74 -159
-78 -150 -77 -150 -1 l0 64 113 51 112 51 3 39 c2 24 -28 162 -78 360 -44 177
-80 332 -80 344 0 21 -135 164 -221 234 -35 28 -36 31 -42 112 l-5 83 141 -3
141 -3 22 -70z m-500 -687 l254 -131 -37 -17 c-21 -10 -126 -60 -233 -111
l-195 -94 -440 -1 -440 -1 -238 141 -238 141 43 19 c24 11 111 48 193 82 l150
63 3 -77 3 -77 155 -82 c85 -46 165 -83 177 -83 12 0 67 20 122 44 l100 44 3
139 2 138 181 -3 181 -3 254 -131z m-1395 -296 l234 -138 3 -322 c1 -177 -1
-322 -4 -322 -3 0 -111 61 -238 136 l-232 137 0 323 c0 178 1 324 2 324 1 0
106 -62 235 -138z m1157 -494 l2 -328 -405 0 -405 0 0 330 0 330 403 -2 402
-3 3 -327z m-1105 -424 c95 -64 174 -118 175 -120 12 -9 -474 -929 -490 -928
-14 1 -741 531 -746 544 -2 4 70 59 160 123 196 138 720 497 726 497 2 0 81
-52 175 -116z m1185 -302 c111 -192 420 -746 428 -766 6 -15 -69 -16 -900 -16
-498 0 -906 3 -906 6 0 4 42 86 94 183 51 97 155 298 231 446 76 149 141 275
145 280 6 6 154 9 419 7 l410 -2 79 -138z m-1972 -542 c171 -124 341 -246 377
-272 l67 -48 0 -1755 0 -1754 -71 -113 c-114 -180 -277 -412 -487 -692 -107
-144 -199 -265 -203 -271 -5 -5 -9 1120 -9 2570 0 1419 4 2575 8 2570 4 -6
147 -112 318 -235z m2389 -359 c3 -5 -155 -299 -351 -653 -196 -354 -521 -940
-722 -1303 -201 -363 -433 -784 -517 -935 -84 -151 -168 -306 -188 -345 -19
-38 -41 -78 -49 -88 -11 -14 -13 261 -13 1658 l0 1675 917 0 c547 0 919 -4
923 -9z m-1614 -3786 c1022 -1055 1361 -1407 1398 -1447 l43 -47 -264 -3
c-144 -2 -518 -4 -830 -6 l-568 -2 -1 817 c-1 450 -2 827 -2 838 0 45 3 66 12
63 5 -1 101 -98 212 -213z m-331 -685 c0 -424 -2 -770 -5 -770 -4 0 -74 49
-158 108 -84 59 -248 175 -366 257 -117 82 -215 155 -218 162 -3 7 13 34 34
60 76 92 460 609 563 758 134 195 134 194 143 195 4 0 7 -346 7 -770z m-632
-462 c274 -187 629 -444 639 -462 6 -12 32 -78 56 -146 25 -69 49 -133 52
-142 4 -11 2 -18 -5 -18 -6 0 -134 82 -283 183 -150 101 -290 193 -312 206
-37 21 -43 31 -94 159 -30 75 -67 163 -82 195 -15 31 -25 57 -22 57 2 0 25
-14 51 -32z"/>
</g>
</svg>
