<?xml version="1.0" standalone="no"?>
<!DOCTYPE svg PUBLIC "-//W3C//DTD SVG 20010904//EN"
 "http://www.w3.org/TR/2001/REC-SVG-20010904/DTD/svg10.dtd">
<svg version="1.0" xmlns="http://www.w3.org/2000/svg"
 width="1024.000000pt" height="1024.000000pt" viewBox="0 0 1024.000000 1024.000000"
 preserveAspectRatio="xMidYMid meet">

<g transform="translate(0.000000,1024.000000) scale(0.100000,-0.100000)"
fill="#000000" stroke="none">
<path d="M6012 9422 l-143 -77 6 -102 7 -102 -54 -15 c-29 -8 -197 -56 -373
-105 -176 -49 -471 -132 -655 -184 -184 -53 -461 -130 -615 -172 -154 -43
-285 -80 -292 -84 -16 -9 -315 -285 -599 -553 l-240 -228 -92 -417 c-51 -230
-133 -611 -182 -848 -50 -236 -113 -533 -141 -660 l-51 -230 5 -217 6 -217
-132 -109 c-73 -59 -283 -229 -467 -377 -184 -148 -384 -310 -445 -360 -60
-50 -146 -120 -190 -156 -44 -36 -156 -128 -250 -205 -93 -77 -261 -213 -372
-303 l-203 -163 0 -183 0 -183 197 -164 c109 -90 208 -171 220 -181 26 -21 12
-25 391 114 74 27 142 49 152 49 43 0 677 -303 787 -377 66 -44 875 -669 1314
-1015 181 -143 193 -150 361 -227 95 -44 292 -135 438 -203 l264 -124 146 33
c80 18 293 67 474 109 l330 75 180 142 c100 77 330 256 511 396 182 140 442
342 579 448 l249 193 220 347 c122 192 307 490 412 663 l192 315 144 -3 c79
-2 159 -5 176 -7 28 -4 86 28 440 241 707 427 833 505 833 517 0 7 18 199 41
427 l42 415 -97 907 c-53 499 -96 913 -96 921 0 13 -241 369 -650 960 -155
225 -166 238 -205 248 -22 6 -182 69 -355 139 -174 71 -516 208 -760 304 -245
97 -488 194 -540 215 l-95 39 -3 136 c-1 75 -4 136 -5 136 -2 0 -91 18 -198
41 -107 22 -250 52 -319 65 -69 14 -132 27 -140 29 -8 2 -79 -31 -158 -73z
m294 -41 c181 -42 346 -81 368 -87 14 -5 3 -15 -50 -46 -38 -22 -95 -53 -126
-69 l-57 -29 -188 55 c-103 30 -214 62 -246 71 l-58 16 45 24 c25 13 71 40
103 59 32 19 63 34 69 35 7 0 70 -13 140 -29z m144 -332 c0 -57 -4 -88 -10
-84 -5 3 -10 44 -10 91 0 49 4 84 10 84 6 0 10 -37 10 -91z m-510 -37 c0 -7
-187 -128 -815 -526 l-310 -197 -60 16 c-33 9 -189 55 -347 101 -157 46 -294
84 -304 84 -36 0 -2 12 142 50 218 57 623 170 914 256 223 66 697 209 725 219
19 7 55 5 55 -3z m287 -98 c70 -25 132 -50 136 -54 8 -7 -375 -984 -391 -1002
-7 -6 -248 84 -737 277 -132 52 -253 99 -268 105 -28 10 -26 12 115 97 145 87
567 351 843 526 83 53 155 96 162 96 7 1 70 -20 140 -45z m774 -103 c272 -133
456 -231 1062 -566 98 -54 176 -101 175 -105 -9 -22 -320 -280 -337 -280 -35
0 -334 79 -368 98 -17 9 -184 161 -369 337 -186 176 -400 378 -476 448 -76 71
-138 132 -137 135 0 4 33 24 72 44 40 20 72 37 73 37 0 1 138 -66 305 -148z
m312 -873 c-81 -33 -957 -358 -965 -358 -5 0 -42 26 -81 58 -40 32 -107 85
-149 116 -43 32 -78 63 -78 68 0 10 293 747 368 926 l34 83 445 -443 c358
-357 440 -444 426 -450z m552 594 c187 -60 400 -129 473 -152 152 -47 150 -40
42 -120 l-68 -51 -99 54 c-134 74 -539 291 -643 345 -104 54 -117 57 295 -76z
m-3522 -188 c247 -74 323 -100 307 -106 -12 -4 -247 -66 -523 -138 -276 -71
-558 -147 -626 -169 l-124 -40 29 28 c16 16 85 80 154 142 305 280 432 390
443 386 7 -3 160 -49 340 -103z m821 -259 c160 -63 411 -161 558 -217 l267
-103 155 -120 154 -120 -67 -75 c-93 -105 -368 -409 -401 -444 l-28 -29 -799
113 c-439 63 -800 115 -802 116 -2 2 42 67 97 146 55 79 182 271 282 428 209
327 272 419 284 420 4 0 139 -52 300 -115z m-558 -105 c-72 -110 -208 -318
-303 -462 -95 -145 -178 -271 -185 -281 -13 -17 -37 -6 -368 171 -195 104
-413 219 -484 257 -86 45 -124 70 -115 75 35 19 616 187 899 260 173 45 396
103 495 129 99 27 183 49 186 50 4 0 -53 -89 -125 -199z m3889 -315 c97 -242
181 -451 186 -464 6 -14 -30 15 -93 74 -195 185 -433 410 -512 483 -78 72 -79
73 -60 92 31 31 298 259 300 257 1 -1 81 -200 179 -442z m-1014 -180 c56 -203
104 -382 107 -396 5 -32 40 -22 -388 -104 -462 -88 -654 -125 -671 -130 -13
-4 -22 26 -53 177 -21 101 -53 249 -71 330 l-32 148 96 37 c53 20 276 105 496
188 337 127 401 149 407 136 4 -9 53 -182 109 -386z m240 345 c63 -16 136 -33
162 -36 26 -4 47 -10 47 -15 0 -26 70 -960 74 -988 l5 -35 -22 25 c-13 13 -67
72 -121 131 l-98 107 -84 363 c-46 200 -91 386 -100 413 -8 28 -18 56 -20 64
-3 10 2 12 18 7 13 -3 75 -20 139 -36z m-4346 -314 c115 -62 320 -172 455
-245 l246 -131 -87 -413 c-79 -375 -245 -1163 -336 -1594 l-36 -172 -62 52
c-34 29 -144 121 -244 206 l-181 154 0 1134 c0 1076 1 1135 17 1128 10 -3 112
-57 228 -119z m2964 -171 c31 -142 119 -564 130 -630 9 -52 61 -395 61 -403 0
-1 -148 138 -330 309 -181 172 -330 315 -330 319 0 3 82 96 181 205 100 110
200 221 222 248 22 26 42 46 43 44 2 -1 12 -43 23 -92z m2116 -235 c116 -90
275 -214 355 -276 80 -61 153 -121 164 -132 18 -20 17 -24 -34 -169 -75 -210
-330 -907 -335 -911 -1 -2 -13 17 -26 42 l-22 45 43 123 c23 68 67 188 96 268
29 80 86 242 127 361 l73 216 -55 47 c-146 126 -701 616 -741 654 -47 46 -44
43 355 -268z m-5390 -749 c0 -929 0 -930 -20 -912 -11 10 -87 74 -170 141 -82
67 -151 124 -153 125 -1 1 20 105 48 231 27 126 97 447 154 714 111 511 137
630 140 630 0 0 1 -418 1 -929z m1715 689 c311 -44 651 -91 755 -105 105 -14
198 -29 207 -33 15 -6 5 -34 -73 -222 -50 -118 -169 -408 -266 -645 -224 -550
-356 -863 -380 -902 l-19 -31 -224 261 c-124 143 -319 371 -434 506 -115 135
-243 286 -284 334 l-75 88 11 57 c25 128 153 748 158 764 4 13 12 16 32 12 15
-2 281 -40 592 -84z m4541 53 c-17 -21 -88 -111 -158 -200 l-127 -163 -28 27
-28 27 32 32 c70 68 333 314 336 314 2 0 -10 -17 -27 -37z m-1727 -343 c-8
-96 -24 -220 -35 -275 -40 -191 -154 -674 -167 -705 -4 -8 -10 41 -14 110 -4
69 -8 134 -9 145 -3 32 228 911 237 902 2 -1 -4 -81 -12 -177z m349 -44 l68
-75 -10 -198 c-6 -109 -20 -380 -31 -603 -21 -413 -28 -541 -55 -1059 l-16
-294 -117 -168 c-64 -92 -119 -168 -122 -168 -7 -1 34 794 55 1064 15 200 37
752 50 1235 3 124 8 275 11 337 l6 112 46 -54 c26 -30 78 -88 115 -129z
m-1668 -266 c61 -58 150 -143 199 -190 l88 -84 -11 -85 c-6 -47 -14 -88 -18
-92 -5 -3 -246 -145 -538 -314 -291 -170 -606 -352 -699 -407 -93 -54 -170
-97 -171 -96 -2 2 27 71 62 153 36 83 123 294 195 470 226 554 313 765 378
922 l63 152 171 -162 c94 -89 220 -209 281 -267z m751 -175 l271 -280 6 -65 5
-65 -31 40 c-90 112 -350 421 -492 584 -294 337 -283 327 241 -214z m2038
-330 c3 -264 9 -667 12 -895 l5 -415 -31 35 c-17 19 -34 46 -37 60 -6 24 9
642 27 1140 5 129 9 309 10 399 0 90 2 162 4 160 2 -2 6 -220 10 -484z m-4652
-255 c238 -278 510 -594 603 -703 94 -109 171 -201 173 -205 1 -4 -62 -2 -140
5 -79 7 -413 35 -742 63 -330 28 -601 52 -604 54 -2 3 12 71 31 153 19 81 79
372 133 645 54 274 102 497 106 495 3 -1 201 -229 440 -507z m2178 -291 c-22
-310 -47 -656 -55 -769 -17 -230 -44 -522 -48 -527 -2 -1 -27 46 -56 105 -61
124 -60 84 -10 407 41 260 130 859 170 1148 19 131 35 230 37 219 2 -10 -15
-272 -38 -583z m748 315 c-2 -8 -144 -164 -316 -348 -291 -310 -373 -395 -332
-341 24 31 227 262 438 497 175 196 220 236 210 192z m2040 -147 c145 -105
152 -112 152 -145 l0 -34 -37 30 c-21 17 -108 92 -193 168 -154 136 -204 188
-119 125 24 -18 113 -83 197 -144z m-1848 -90 c51 -93 90 -171 87 -173 -6 -6
-38 49 -127 221 -100 192 -72 158 40 -48z m868 -283 c-117 -176 -249 -373
-292 -439 -43 -66 -76 -113 -74 -105 86 258 119 328 253 535 39 61 111 177
159 259 l88 148 40 -40 40 -40 -214 -318z m-5630 74 c23 -68 44 -138 48 -157
l6 -35 -48 36 -49 36 -3 121 c-1 67 -1 121 2 121 2 0 22 -55 44 -122z m637
-227 c99 -85 181 -154 182 -155 2 -2 -39 -270 -42 -274 -4 -4 -377 230 -467
293 l-76 55 53 102 c29 57 60 124 70 150 l18 48 41 -33 c22 -17 122 -101 221
-186z m-582 -140 l67 -43 -87 -61 c-133 -92 -654 -457 -861 -603 -180 -128
-183 -130 -280 -153 -53 -12 -184 -52 -289 -87 -106 -35 -195 -64 -198 -64 -3
0 41 37 97 83 234 189 532 433 673 551 83 70 240 198 350 286 110 87 225 179
255 203 l54 45 76 -58 c41 -31 105 -76 143 -99z m2370 53 c93 -47 384 -210
507 -284 52 -31 145 -85 205 -120 154 -89 355 -217 388 -249 26 -24 63 -81 53
-81 -2 0 -145 75 -318 166 -381 202 -653 340 -691 349 -15 4 -26 10 -23 13 8
7 -46 73 -133 164 -40 43 -71 78 -67 78 4 0 39 -16 79 -36z m3835 -369 c41
-55 80 -106 86 -114 21 -27 -27 5 -60 41 -51 53 -294 387 -294 403 0 9 176
-207 268 -330z m-5941 132 c70 -46 183 -116 250 -155 67 -40 124 -76 128 -81
3 -5 -131 -110 -297 -232 -167 -122 -396 -292 -510 -376 l-207 -154 -218 101
c-120 56 -262 122 -316 148 l-99 46 24 18 c31 24 620 438 882 620 116 81 216
147 223 147 7 1 70 -36 140 -82z m1013 23 c36 -5 277 -34 535 -65 259 -30 484
-57 502 -60 l32 -6 -33 -72 c-18 -40 -64 -139 -102 -222 -37 -82 -69 -151 -70
-153 -5 -8 -246 63 -564 164 -342 108 -748 234 -759 234 -7 0 48 35 198 127
114 69 129 72 261 53z m3263 -425 c102 -93 184 -171 183 -171 0 -1 -147 36
-325 82 -178 46 -373 93 -432 106 -60 12 -109 24 -109 28 1 3 85 57 188 121
l187 115 62 -55 c34 -31 145 -132 246 -226z m-3527 31 c153 -52 294 -100 313
-107 l33 -12 -73 -40 c-70 -38 -341 -191 -939 -530 -146 -82 -269 -150 -275
-150 -5 1 -90 40 -188 88 l-177 86 316 232 c248 182 706 521 710 526 0 1 126
-41 280 -93z m4873 -10 c-7 -6 -345 -146 -619 -257 -242 -97 -259 -102 -332
-103 -42 -1 -75 0 -73 3 9 9 390 147 695 252 291 100 340 115 329 105z m-2056
-139 c-26 -58 -49 -104 -51 -102 -2 1 11 36 28 76 18 41 39 89 47 108 8 18 16
31 19 29 2 -3 -17 -53 -43 -111z m-326 -89 c84 -57 153 -106 153 -109 0 -3
-10 -5 -22 -3 -13 2 -156 13 -318 24 -339 24 -1163 108 -1135 116 6 2 179 15
385 29 538 37 616 42 705 44 l80 1 152 -102z m-1729 -8 c157 -50 291 -90 299
-90 8 0 13 -4 11 -9 -5 -13 -818 -664 -823 -659 -12 12 63 351 148 666 40 147
55 191 66 187 8 -3 142 -46 299 -95z m-408 39 c0 -6 -18 -77 -40 -158 -53
-197 -135 -540 -149 -626 -7 -38 -18 -79 -25 -90 -18 -27 -176 -209 -185 -213
-3 -1 -65 30 -136 69 -72 39 -248 131 -392 206 -145 74 -265 138 -267 142 -3
3 71 49 162 100 481 270 998 564 1007 572 13 12 25 11 25 -2z m1085 -189 c94
-10 285 -26 425 -35 140 -9 258 -17 261 -18 4 -1 -116 -78 -265 -172 -814
-509 -1127 -709 -1335 -853 l-94 -65 -198 99 c-110 54 -199 101 -199 104 0 20
212 226 318 308 154 122 639 513 742 600 74 62 75 62 125 57 28 -3 127 -14
220 -25z m-3285 -104 c236 -110 463 -218 724 -344 l119 -58 -164 -140 c-90
-77 -189 -160 -219 -185 l-55 -46 -215 103 c-195 94 -816 376 -848 386 -11 3
392 398 406 398 3 0 116 -51 252 -114z m-563 -70 l-177 -173 -88 -12 c-48 -6
-154 -18 -237 -26 -82 -9 -157 -18 -165 -20 -17 -6 -2 8 131 116 90 73 100 78
244 127 83 28 220 76 305 106 85 30 157 55 160 55 3 0 -75 -78 -173 -173z
m4872 96 l104 -7 -155 -125 c-712 -573 -1357 -1089 -1373 -1099 -18 -11 -55
-3 -260 53 -132 37 -246 69 -254 72 -29 10 265 202 1291 846 l438 275 52 -4
c29 -2 100 -7 157 -11z m811 -52 c201 -7 421 -15 489 -18 l124 -7 -119 -63
c-65 -35 -187 -96 -271 -137 l-152 -74 -228 151 c-240 158 -261 174 -228 165
11 -3 184 -11 385 -17z m-255 -170 c140 -94 257 -175 259 -178 5 -8 -435 -534
-451 -539 -5 -2 -48 26 -96 62 l-87 66 0 54 c0 30 12 139 26 242 14 104 32
240 40 303 19 156 23 173 40 166 8 -3 129 -82 269 -176z m507 -318 c-142 -175
-304 -377 -361 -450 -58 -73 -108 -132 -113 -132 -16 0 -169 122 -166 132 2 5
109 133 238 285 l235 276 205 102 c113 57 208 104 212 104 4 1 -109 -142 -250
-317z m-5853 62 c344 -152 621 -279 753 -345 l98 -49 -42 -84 -41 -83 -166 77
c-91 43 -301 145 -466 227 -432 216 -483 237 -660 274 -152 31 -178 39 -134
39 17 1 330 59 368 69 3 0 133 -56 290 -125z m1861 -333 c199 -157 759 -620
779 -644 9 -11 -2 -53 -49 -192 -33 -98 -62 -180 -64 -183 -10 -9 -1500 949
-1545 992 -11 12 1 26 75 89 49 41 147 124 218 184 l130 110 180 -140 c100
-77 224 -174 276 -216z m-2342 217 c-4 -12 -325 -100 -343 -94 -5 2 8 8 30 15
22 6 94 29 160 51 126 41 159 48 153 28z m2377 -111 c66 -35 275 -144 465
-241 190 -98 351 -183 357 -189 10 -10 6 -35 -17 -121 -16 -60 -31 -110 -33
-112 -2 -2 -55 38 -118 90 -306 252 -594 485 -691 559 -59 45 -107 86 -107 91
-1 5 5 4 12 -2 6 -5 66 -39 132 -75z m2940 -165 c-13 -11 -209 -101 -385 -177
-144 -62 -302 -135 -824 -379 -149 -69 -271 -124 -273 -123 -2 2 7 34 20 72
l22 68 195 79 c401 162 772 304 1005 384 260 90 253 88 240 76z m-3655 -214
c372 -288 791 -620 1037 -821 l232 -190 -40 -78 c-21 -44 -42 -79 -45 -79 -3
0 -114 85 -247 188 -390 303 -629 488 -837 647 -216 165 -410 314 -424 326
-14 12 74 201 88 190 6 -4 112 -87 236 -183z m3831 135 c43 -32 78 -60 79 -63
0 -6 -295 -231 -662 -505 -137 -101 -248 -180 -248 -176 0 5 7 15 17 22 9 8
176 186 370 397 195 210 357 382 360 382 3 0 41 -26 84 -57z m224 -165 l75
-52 -22 -22 c-26 -25 -419 -349 -828 -682 -151 -124 -290 -239 -307 -255 l-33
-31 0 151 0 150 148 120 c81 66 287 224 457 353 171 128 334 253 363 277 30
23 58 43 63 43 5 0 43 -23 84 -52z m-2132 -186 c115 -44 211 -83 215 -86 7 -8
-10 -74 -33 -128 -18 -46 -28 -47 -165 -18 -104 22 -339 87 -360 100 -9 6 -3
34 26 123 l38 115 35 -13 c20 -7 130 -49 244 -93z m-274 -232 c124 -38 284
-76 355 -85 31 -4 56 -10 56 -13 0 -12 -121 -414 -132 -438 -6 -13 -14 -24
-17 -24 -11 0 -475 211 -485 221 -11 10 103 369 117 369 6 0 53 -13 106 -30z
m1204 -457 c4 -54 7 -124 7 -155 l0 -57 -72 -22 c-40 -12 -209 -61 -376 -109
-302 -87 -303 -87 -316 -66 -48 78 -126 240 -119 246 4 4 193 63 418 130 226
67 415 123 420 125 28 10 32 1 38 -92z m-1208 -63 c127 -56 235 -107 242 -113
22 -23 136 -250 122 -245 -19 8 -643 310 -648 314 -8 7 34 154 43 151 6 -3
115 -51 241 -107z"/>
</g>
</svg>
