<?xml version="1.0" standalone="no"?>
<!DOCTYPE svg PUBLIC "-//W3C//DTD SVG 20010904//EN"
 "http://www.w3.org/TR/2001/REC-SVG-20010904/DTD/svg10.dtd">
<svg version="1.0" xmlns="http://www.w3.org/2000/svg"
 width="1024.000000pt" height="1024.000000pt" viewBox="0 0 1024.000000 1024.000000"
 preserveAspectRatio="xMidYMid meet">

<g transform="translate(0.000000,1024.000000) scale(0.100000,-0.100000)"
fill="#000000" stroke="none">
<path d="M6111 8445 c-20 -16 -67 -56 -104 -89 l-67 -58 0 -106 0 -105 -67 6
c-66 6 -79 2 -408 -103 -187 -59 -477 -152 -645 -205 -168 -53 -415 -132 -550
-175 -135 -43 -271 -86 -302 -95 -57 -16 -59 -18 -362 -348 -167 -183 -340
-371 -384 -419 -44 -48 -86 -96 -92 -107 -12 -23 -31 -110 -224 -1041 -48
-229 -89 -426 -150 -715 -8 -38 -17 -96 -21 -127 l-7 -57 -177 -94 c-97 -52
-401 -216 -676 -364 -275 -149 -570 -308 -655 -354 -85 -46 -238 -129 -340
-184 l-185 -101 -3 -167 -2 -166 28 -15 c15 -8 201 -73 412 -146 978 -333
1776 -612 1833 -641 39 -20 1034 -616 1136 -681 l45 -28 581 0 582 0 249 177
c137 97 382 271 544 387 792 564 1175 837 1284 914 105 74 131 87 220 113 180
54 1291 412 1843 596 l82 27 -6 955 -6 956 -77 165 c-137 291 -405 850 -481
1005 -87 175 -34 137 -434 314 -575 254 -1176 513 -1505 647 l-155 63 -5 110
-5 110 -84 72 c-47 39 -94 77 -105 84 -16 10 -83 14 -269 17 l-248 3 -38 -30z
m-171 -704 c0 -6 -4 -12 -9 -16 -6 -3 -40 -49 -77 -103 -202 -291 -590 -845
-675 -962 l-97 -135 -21 -325 c-12 -179 -30 -458 -41 -620 -11 -162 -27 -398
-36 -525 -25 -378 -41 -576 -47 -582 -4 -3 -68 6 -144 21 -229 43 -755 142
-963 180 -512 93 -683 126 -687 129 -2 2 49 251 112 553 64 302 140 668 170
814 30 146 57 275 60 286 4 20 135 169 467 531 l148 162 433 141 c237 78 646
212 907 299 261 87 481 159 488 160 6 0 12 -3 12 -8z m591 -168 c201 -239 739
-877 977 -1158 l220 -260 7 -100 c3 -55 5 -527 3 -1050 l-3 -949 -138 -44
-138 -44 -622 126 c-342 69 -822 166 -1066 216 -244 49 -445 91 -446 92 -1 2
7 122 16 268 43 631 90 1349 101 1525 l11 190 112 155 c109 151 581 813 754
1057 47 67 87 122 87 123 1 0 57 -66 125 -147z m814 -83 c155 -70 418 -191
585 -268 168 -77 384 -176 480 -219 l175 -79 27 -55 c24 -49 372 -773 469
-976 l39 -82 -2 -652 -3 -652 -497 -166 -498 -166 0 1052 0 1052 -52 63 c-29
35 -129 153 -223 263 -94 110 -278 326 -410 480 -131 154 -301 351 -377 437
-76 86 -138 159 -138 162 0 2 33 -12 73 -31 39 -19 198 -93 352 -163z m-4160
-3105 c93 -19 314 -61 490 -95 176 -33 340 -64 365 -70 25 -5 221 -44 435 -85
871 -169 2442 -488 2452 -498 2 -3 -13 -14 -33 -26 -20 -12 -336 -231 -703
-488 -366 -257 -829 -581 -1028 -720 -199 -139 -369 -256 -377 -259 -10 -4
-74 30 -169 89 -313 195 -1299 792 -1352 820 -16 8 -75 28 -130 45 -55 17
-226 69 -380 117 -387 120 -855 262 -1074 325 -163 48 -181 55 -165 67 11 8
98 57 194 110 96 53 420 233 720 400 300 166 554 303 565 303 10 0 96 -16 190
-35z"/>
<path d="M3875 6248 c-2 -7 -18 -74 -34 -148 -35 -159 -139 -607 -147 -632 -5
-17 15 -18 325 -18 294 0 331 2 331 16 0 8 36 185 81 392 44 207 81 381 82
387 3 16 -632 19 -638 3z"/>
</g>
</svg>
