<?xml version="1.0" standalone="no"?>
<!DOCTYPE svg PUBLIC "-//W3C//DTD SVG 20010904//EN"
 "http://www.w3.org/TR/2001/REC-SVG-20010904/DTD/svg10.dtd">
<svg version="1.0" xmlns="http://www.w3.org/2000/svg"
 width="1024.000000pt" height="1024.000000pt" viewBox="0 0 1024.000000 1024.000000"
 preserveAspectRatio="xMidYMid meet">

<g transform="translate(0.000000,1024.000000) scale(0.100000,-0.100000)"
fill="#000000" stroke="none">
<path d="M3149 7593 c-375 -389 -1034 -1152 -1812 -2095 l-137 -167 0 -903 0
-903 413 -413 412 -412 890 0 890 0 413 413 412 412 0 103 0 103 111 267 c61
147 118 280 126 295 l14 29 241 -5 c132 -3 244 -9 248 -14 5 -4 51 -109 103
-233 52 -124 107 -251 122 -284 24 -54 26 -67 23 -159 l-3 -100 409 -413 408
-414 897 0 896 0 408 408 407 407 0 910 0 910 -235 284 c-129 156 -283 340
-342 410 -694 815 -889 1035 -1278 1449 l-199 212 -103 0 -103 0 -288 -292
c-158 -161 -309 -316 -335 -344 l-47 -51 0 -197 0 -196 69 0 69 0 320 326
c180 183 325 324 331 320 35 -22 288 -353 661 -864 58 -79 180 -245 271 -368
l167 -224 -857 0 -856 0 -234 -240 -233 -240 -692 0 -693 0 -237 240 -238 240
-846 0 c-466 0 -851 0 -856 0 -5 0 0 10 12 23 20 21 130 172 479 652 365 503
581 785 601 785 4 0 153 -146 332 -325 l325 -325 57 0 58 0 0 203 0 202 -337
338 -337 337 -101 0 -102 0 -94 -97z m873 -2410 l228 -228 0 -635 0 -636 -297
-297 -298 -297 -744 0 -744 0 -288 288 -289 287 0 645 -1 645 225 228 226 227
877 0 878 0 227 -227z m4401 0 l227 -228 0 -640 0 -640 -292 -292 -293 -293
-740 0 -740 0 -297 297 -298 298 0 630 0 630 232 232 233 233 871 0 871 0 226
-227z m-2805 -380 l-3 -138 -492 -3 -493 -2 0 140 0 140 495 0 496 0 -3 -137z"/>
</g>
</svg>
