<?xml version="1.0" standalone="no"?>
<!DOCTYPE svg PUBLIC "-//W3C//DTD SVG 20010904//EN"
 "http://www.w3.org/TR/2001/REC-SVG-20010904/DTD/svg10.dtd">
<svg version="1.0" xmlns="http://www.w3.org/2000/svg"
 width="1024.000000pt" height="1024.000000pt" viewBox="0 0 1024.000000 1024.000000"
 preserveAspectRatio="xMidYMid meet">

<g transform="translate(0.000000,1024.000000) scale(0.100000,-0.100000)"
fill="#000000" stroke="none">
<path d="M3540 9335 l0 -465 -210 0 -209 0 -25 -42 c-13 -24 -113 -200 -221
-393 -260 -462 -399 -707 -750 -1325 l-293 -515 2 -1470 2 -1470 39 -70 c39
-70 310 -550 430 -760 34 -60 134 -236 220 -390 272 -482 469 -829 542 -955
l49 -85 212 -3 212 -2 0 -475 0 -475 1580 0 1580 0 0 475 0 475 212 2 213 3
86 150 c47 83 162 285 254 450 92 165 250 444 350 620 100 176 273 481 384
678 l201 358 0 414 0 415 280 0 280 0 0 645 0 645 -280 0 -280 0 0 415 0 416
-71 127 c-40 70 -112 199 -162 287 -49 88 -208 367 -352 620 -280 491 -652
1149 -679 1203 l-17 32 -209 0 -210 0 0 465 0 465 -1580 0 -1580 0 0 -465z
m2730 -215 l0 -250 -1145 0 -1145 0 0 250 0 250 1145 0 1145 0 0 -250z m526
-757 c130 -237 520 -917 559 -977 11 -16 14 -27 7 -25 -14 5 -177 133 -651
512 l-335 267 -1256 0 -1256 0 -84 -67 c-47 -37 -251 -200 -455 -363 -485
-387 -456 -365 -448 -343 4 10 34 63 66 118 33 55 131 226 219 380 88 154 177
309 198 345 20 36 56 100 79 143 l42 77 1639 0 1638 0 38 -67z m-431 -776 c72
-57 330 -263 575 -458 245 -195 484 -386 533 -424 l87 -69 0 -1511 0 -1510
-63 -46 c-34 -26 -128 -100 -208 -165 -81 -66 -220 -177 -310 -249 -90 -71
-297 -235 -459 -365 l-295 -235 -1103 -2 -1104 -2 -297 237 c-313 249 -988
785 -1025 814 l-21 16 0 1508 0 1508 106 86 c58 47 287 229 509 405 221 176
471 375 554 441 l151 122 1120 1 1120 1 130 -103z m2215 -2462 l0 -225 -90 0
-90 0 0 225 0 225 90 0 90 0 0 -225z m-5485 -2410 c110 -87 229 -182 265 -210
36 -29 163 -129 283 -224 l217 -171 1259 0 1259 0 54 43 c29 24 156 124 282
222 206 159 591 463 640 504 18 16 18 15 1 -19 -10 -19 -55 -98 -100 -175
-152 -260 -474 -821 -481 -838 -6 -16 -123 -17 -1653 -17 l-1646 0 -275 478
c-320 557 -338 591 -319 576 8 -6 104 -82 214 -169z m3175 -1580 l0 -255
-1135 0 c-624 0 -1138 -1 -1142 -2 -5 -2 -9 113 -11 255 l-2 257 1145 0 1145
0 0 -255z"/>
<path d="M4970 7076 l0 -323 145 -2 145 -1 0 325 0 325 -145 0 -145 0 0 -324z"/>
<path d="M3951 7126 c-56 -35 -107 -68 -113 -74 -10 -10 249 -481 265 -482 7
0 225 125 235 134 2 3 -27 57 -188 349 -41 75 -79 137 -85 137 -5 0 -57 -29
-114 -64z"/>
<path d="M6074 7033 c-112 -200 -177 -324 -172 -327 1 -2 54 -34 117 -72 l114
-69 16 24 c9 13 57 96 106 185 50 88 105 186 123 217 l32 56 -118 72 c-65 39
-120 71 -124 71 -3 0 -46 -71 -94 -157z"/>
<path d="M6699 6393 c-96 -64 -443 -295 -771 -515 l-597 -398 -174 0 -175 0
-128 93 c-71 51 -160 116 -199 145 -38 28 -187 137 -330 242 l-260 190 -25
-31 c-45 -56 -210 -284 -210 -290 0 -3 145 -113 323 -244 177 -132 376 -279
441 -328 65 -49 125 -91 133 -94 10 -4 13 -54 13 -249 l0 -244 125 0 125 0 0
-910 0 -910 130 0 130 0 0 910 0 910 140 0 140 0 0 238 0 239 323 216 c177
118 522 351 767 517 245 166 452 305 459 310 12 7 11 14 -10 41 -14 19 -60 89
-103 157 -43 67 -81 122 -86 122 -4 0 -85 -52 -181 -117z m-1459 -1318 l0
-115 -94 0 c-52 0 -101 3 -110 6 -13 5 -16 25 -16 115 l0 109 110 0 110 0 0
-115z"/>
<path d="M3082 6296 c-40 -62 -72 -116 -72 -119 0 -3 69 -48 153 -100 252
-156 321 -197 332 -197 15 0 158 231 148 240 -25 25 -464 290 -480 290 -5 0
-42 -51 -81 -114z"/>
<path d="M2880 5125 l0 -155 315 0 315 0 0 155 0 155 -315 0 -315 0 0 -155z"/>
<path d="M6720 5125 l0 -155 320 0 320 0 0 155 0 155 -320 0 -320 0 0 -155z"/>
<path d="M3444 4336 c-28 -17 -134 -82 -237 -144 -102 -62 -189 -116 -191
-121 -5 -7 107 -203 134 -236 8 -9 72 24 254 134 l245 146 -17 25 c-9 14 -40
68 -70 120 -29 52 -57 98 -60 101 -4 4 -30 -8 -58 -25z"/>
<path d="M6733 4348 c-6 -7 -33 -53 -62 -101 -28 -49 -58 -99 -66 -111 -15
-22 -12 -25 226 -171 187 -114 244 -144 250 -134 5 8 40 64 78 126 51 82 67
114 58 121 -14 11 -467 282 -471 282 -2 0 -8 -6 -13 -12z"/>
<path d="M3970 3446 c-73 -129 -132 -238 -132 -243 -1 -4 50 -40 113 -80 109
-69 115 -71 130 -53 8 10 71 118 138 240 l123 222 -23 16 c-32 22 -209 132
-213 132 -2 0 -63 -105 -136 -234z"/>
<path d="M6025 3614 c-60 -36 -114 -69 -119 -74 -6 -6 219 -428 259 -488 2 -1
56 30 123 69 l120 73 -52 95 c-131 246 -211 391 -216 391 -3 0 -54 -30 -115
-66z"/>
</g>
</svg>
