<?xml version="1.0" standalone="no"?>
<!DOCTYPE svg PUBLIC "-//W3C//DTD SVG 20010904//EN"
 "http://www.w3.org/TR/2001/REC-SVG-20010904/DTD/svg10.dtd">
<svg version="1.0" xmlns="http://www.w3.org/2000/svg"
 width="1024.000000pt" height="1024.000000pt" viewBox="0 0 1024.000000 1024.000000"
 preserveAspectRatio="xMidYMid meet">

<g transform="translate(0.000000,1024.000000) scale(0.100000,-0.100000)"
fill="#000000" stroke="none">
<path d="M2770 9820 c-234 -75 -532 -172 -662 -214 l-238 -77 0 -371 0 -371
-505 -501 -506 -501 0 -2269 1 -2269 47 -61 c128 -164 561 -704 641 -800 l92
-108 0 -703 0 -702 198 -32 c108 -17 301 -47 427 -66 127 -20 271 -42 320 -50
50 -8 125 -19 168 -25 l77 -11 63 58 c35 32 165 154 290 272 l227 214 2 177 3
177 185 -31 185 -31 0 -312 0 -312 40 -41 c22 -23 88 -87 147 -142 l107 -100
348 -53 c192 -30 480 -75 641 -100 l293 -45 57 35 c115 72 487 317 499 328 8
8 13 60 15 152 l3 140 45 -4 c25 -1 67 -7 93 -12 37 -7 55 -5 77 6 24 12 198
125 622 402 54 34 100 63 103 63 3 0 5 -198 5 -440 l0 -439 33 -6 c69 -12 595
-97 835 -135 191 -30 258 -37 273 -29 11 5 57 36 102 68 45 31 107 74 137 95
30 22 76 54 103 73 l47 35 0 373 0 373 313 344 c171 189 342 378 380 420 l67
76 0 770 0 770 109 188 c59 104 129 224 155 267 l46 79 0 288 0 288 -37 32
c-21 18 -89 82 -150 143 l-113 110 0 724 0 724 -162 158 c-90 86 -252 242
-360 345 l-198 189 -2 896 c-2 493 -3 932 -3 975 l0 80 -295 78 c-162 43 -301
78 -308 78 -18 0 -60 -29 -717 -499 -319 -228 -587 -414 -595 -414 -14 0 -345
66 -497 99 l-73 15 0 374 c0 214 -4 376 -9 379 -10 6 -233 49 -576 111 -110
20 -250 45 -311 56 l-111 21 -189 -61 c-104 -34 -195 -65 -202 -70 -11 -6 -13
-54 -10 -229 l3 -221 -60 -22 c-33 -12 -207 -77 -387 -145 -180 -68 -332 -124
-338 -124 -6 0 -11 138 -12 392 l-3 393 -137 95 c-299 207 -407 280 -420 284
-7 2 -204 -58 -438 -134z m487 -89 c69 -51 300 -215 342 -242 9 -6 12 -12 6
-15 -13 -5 -531 -183 -565 -193 -18 -6 -81 8 -215 45 -104 29 -268 74 -363
100 -95 26 -171 48 -170 50 5 4 209 77 473 169 132 46 276 97 320 113 44 16
83 30 87 31 4 0 42 -25 85 -58z m1888 -315 c55 -44 127 -103 160 -132 33 -28
159 -131 280 -229 121 -98 223 -183 227 -189 4 -6 8 -91 8 -190 l0 -178 -27 5
c-155 33 -434 91 -455 94 l-28 5 0 183 0 183 -97 17 c-54 10 -125 23 -158 30
l-60 12 -3 234 c-1 128 0 239 3 247 7 19 31 4 150 -92z m510 -29 l160 -34 5
-134 c3 -74 4 -136 3 -138 -4 -6 -39 19 -128 90 -45 35 -140 111 -213 168 -73
57 -132 107 -132 111 0 3 33 -2 73 -12 39 -10 144 -33 232 -51z m2464 -93 c95
-29 174 -54 176 -56 2 -2 6 -610 10 -1353 6 -1183 5 -1348 -7 -1335 -9 8 -106
167 -217 353 l-201 337 0 1060 0 1060 33 -7 c17 -3 110 -30 206 -59z m-4508
-430 l1 -449 -289 -277 c-158 -153 -290 -277 -293 -278 -3 0 -7 279 -9 620
l-4 619 24 11 c34 15 563 207 566 205 2 -1 3 -204 4 -451z m1444 -11 l100 -20
3 -96 c1 -54 -1 -97 -5 -97 -9 -1 -491 90 -510 96 -9 2 -13 32 -13 102 l0 99
163 -32 c89 -18 207 -42 262 -52z m-3035 -634 c0 -438 -1 -464 -17 -462 -10 1
-47 6 -83 12 -36 5 -148 21 -250 35 -102 14 -201 29 -222 34 l-36 7 102 140
c94 128 399 559 469 663 16 24 31 41 33 39 2 -2 4 -212 4 -468z m2383 445 c73
-14 377 -75 677 -135 709 -143 1788 -358 2007 -401 95 -18 173 -37 173 -41 0
-16 -322 -542 -333 -545 -7 -1 -43 4 -82 11 l-70 13 -3 141 -3 140 -122 23
c-67 12 -212 39 -322 61 -110 21 -319 61 -465 89 -146 28 -431 84 -635 125
-203 41 -383 76 -400 77 -21 1 -160 -64 -482 -225 l-451 -226 -144 -173 c-79
-95 -191 -231 -248 -302 -146 -180 -220 -266 -228 -266 -10 0 -394 327 -414
353 -10 12 -18 25 -18 28 0 3 46 46 102 95 94 81 236 209 813 729 110 99 249
223 310 275 60 52 130 114 155 137 25 24 47 43 48 43 2 0 63 -12 135 -26z
m1807 -149 c187 -37 406 -81 448 -92 19 -4 22 -12 22 -49 0 -42 -1 -44 -29
-44 -16 0 -82 11 -147 25 -66 14 -208 44 -316 67 l-198 41 0 49 c0 42 2 49 18
44 9 -3 100 -22 202 -41z m1276 -799 c61 -105 196 -339 301 -521 199 -344 445
-760 576 -976 l77 -125 -2 -415 -3 -414 -207 222 -208 222 0 232 0 231 -113
157 c-62 86 -266 368 -453 626 -187 259 -350 485 -362 502 l-23 33 138 230
c132 221 139 230 153 209 8 -11 65 -107 126 -213z m-2442 73 c166 -34 302 -62
304 -64 2 -2 -17 -22 -42 -45 l-46 -43 0 -398 0 -398 33 -6 c308 -55 301 -54
327 -37 14 8 60 44 103 80 l77 64 0 354 c0 195 3 354 8 354 17 0 575 -107 605
-116 15 -5 17 -20 17 -138 l0 -133 45 -13 c25 -7 48 -17 51 -21 3 -5 -59 -126
-136 -269 l-142 -260 67 -75 c37 -41 72 -75 77 -75 11 0 135 98 159 126 10 11
69 116 132 234 64 118 119 216 124 217 9 3 742 -1001 743 -1018 0 -3 -19 -16
-42 -29 -118 -64 -458 -266 -458 -271 0 -7 65 -106 81 -123 5 -5 13 -5 21 1
21 17 456 272 469 275 6 2 31 -28 55 -67 l44 -69 0 -398 c0 -373 -1 -398 -17
-398 -10 1 -130 20 -267 44 l-249 43 -104 -69 -103 -68 0 -209 0 -210 38 -10
c20 -5 105 -21 187 -36 83 -15 191 -36 240 -45 l90 -18 45 24 c25 12 65 37 90
53 26 18 48 27 53 22 5 -5 8 -211 5 -473 l-3 -464 -95 -105 c-52 -57 -272
-299 -490 -538 -217 -238 -409 -449 -425 -468 l-31 -35 -319 52 c-390 63 -655
109 -674 116 -11 3 -5 15 22 42 l37 38 0 376 0 376 -27 6 c-16 3 -94 15 -174
27 -169 26 -141 34 -263 -78 l-66 -60 0 -328 0 -327 -32 6 c-56 11 -615 104
-758 126 -74 11 -163 25 -197 31 l-62 11 -93 121 c-99 129 -100 131 -368 502
-95 132 -231 320 -302 418 -71 98 -174 244 -228 324 l-100 146 0 389 c0 366 1
389 18 384 9 -3 109 -21 222 -41 113 -20 239 -43 280 -50 l75 -14 90 61 c50
34 107 73 127 87 l37 26 1 202 c0 202 0 203 -22 208 -13 2 -144 25 -293 50
-148 25 -282 48 -296 51 -21 4 -44 -11 -129 -80 -57 -47 -105 -84 -107 -82 -2
1 -6 223 -10 492 l-6 490 67 79 c37 44 185 222 329 395 144 173 276 329 292
347 21 22 118 76 312 173 155 77 285 140 288 140 3 0 5 -6 5 -13 0 -7 9 -30
20 -52 11 -21 19 -40 17 -41 -1 -1 -48 -28 -104 -59 -57 -32 -103 -62 -103
-67 0 -24 309 -586 346 -629 13 -14 29 -7 152 75 l138 91 -137 290 c-75 160
-155 327 -177 373 l-42 83 43 19 c165 73 204 88 216 84 8 -3 150 -32 315 -65z
m-3329 -140 c165 -22 301 -42 303 -43 1 -2 -63 -122 -142 -268 -79 -145 -194
-359 -255 -474 l-111 -209 0 -1407 0 -1406 92 -104 c51 -56 168 -185 260 -286
l168 -183 0 -284 c0 -157 -3 -285 -7 -285 -5 0 -19 16 -33 34 -14 19 -83 105
-155 191 -71 87 -157 191 -190 231 -33 40 -109 132 -169 206 l-108 132 3 2096
c1 1152 5 2099 7 2103 2 4 11 6 20 3 10 -3 152 -24 317 -47z m3865 27 l65 -13
-4 -309 c-1 -170 -5 -311 -7 -313 -2 -3 -39 2 -82 10 l-77 14 -3 318 -2 317
22 -5 c13 -3 52 -11 88 -19z m-2921 -262 c47 -7 89 -19 93 -26 21 -30 168
-342 163 -346 -7 -7 -808 -272 -823 -272 -7 0 1 18 20 43 18 24 119 175 223
336 179 275 191 291 215 285 14 -3 63 -12 109 -20z m6209 -589 c72 -70 132
-131 132 -136 0 -14 -85 -59 -111 -59 -13 1 -114 18 -224 39 l-200 38 -3 259
-2 258 137 -136 c76 -75 198 -193 271 -263z m-5720 140 c29 -21 52 -44 52 -49
0 -8 -63 -87 -117 -146 -11 -12 -13 7 -13 118 0 106 3 131 13 125 7 -4 36 -26
65 -48z m-208 -446 c0 -203 -2 -369 -4 -369 -4 0 -228 141 -581 365 -71 45
-145 90 -162 99 -18 9 -33 20 -33 24 0 10 762 261 773 255 4 -2 7 -170 7 -374z
m5625 36 c50 -9 150 -27 223 -41 l133 -25 46 25 c25 15 47 25 48 24 6 -6 10
-1238 5 -1238 -3 0 -105 16 -226 37 l-221 37 -7 80 c-3 45 -6 213 -6 375 l0
294 -50 78 -50 78 0 145 c0 81 3 146 8 146 4 0 48 -7 97 -15z m-6343 -98 c79
-51 206 -133 283 -182 77 -49 142 -90 144 -92 2 -1 -16 -26 -41 -55 -302 -359
-530 -628 -534 -628 -2 0 -4 236 -4 525 0 289 2 525 5 525 2 0 68 -42 147 -93z
m631 -413 l77 -47 0 -801 0 -802 31 -42 30 -42 -57 -25 c-31 -14 -63 -25 -71
-25 -8 0 -110 84 -226 187 -117 102 -292 256 -389 341 l-178 155 0 191 1 191
265 315 c146 173 296 352 332 397 63 77 68 81 88 68 11 -7 55 -35 97 -61z
m709 -484 c122 -22 223 -40 225 -40 1 0 3 -43 3 -95 0 -83 -2 -95 -17 -95 -16
0 -375 63 -430 75 -22 5 -23 10 -23 100 0 62 4 95 11 95 6 0 110 -18 231 -40z
m4672 -244 l206 -225 -2 -806 -3 -806 -167 113 c-91 62 -183 127 -205 144
l-38 31 -3 887 c-2 487 -1 886 1 886 3 0 98 -101 211 -224z m521 -107 c189
-32 349 -59 359 -59 10 0 197 -182 192 -187 -3 -4 -525 83 -561 93 -25 8 -175
154 -175 172 0 14 -8 15 185 -19z m-1340 -270 c94 -16 191 -34 218 -38 26 -4
51 -11 55 -15 9 -10 9 -186 0 -186 -4 0 -85 13 -180 29 -95 16 -197 32 -225
36 l-53 7 0 99 c0 54 3 99 8 99 4 0 84 -14 177 -31z m1668 -70 l247 -42 0
-182 0 -182 -77 14 c-43 8 -170 31 -283 51 l-205 37 -3 179 -2 179 37 -6 c21
-3 149 -25 286 -48z m-6765 -292 c369 -331 515 -457 529 -457 7 0 56 16 109
37 56 21 99 32 102 27 4 -5 31 -46 61 -89 30 -44 178 -252 328 -463 151 -211
276 -389 279 -397 3 -8 -30 -43 -87 -92 -52 -43 -133 -113 -182 -157 -48 -43
-90 -77 -91 -75 -2 2 -59 74 -126 159 -237 298 -510 625 -905 1085 -100 116
-200 234 -223 263 l-42 54 0 159 c0 87 2 159 5 159 3 0 112 -96 243 -213z
m6582 -412 c113 -21 207 -39 209 -41 5 -5 -31 -73 -45 -85 -7 -5 -82 4 -200
26 -104 19 -192 35 -196 35 -5 0 -8 25 -8 56 0 48 2 55 18 50 9 -2 109 -21
222 -41z m-95 -410 c110 -19 203 -35 208 -35 4 0 7 -296 7 -657 l0 -658 -93
-102 c-66 -72 -99 -102 -116 -102 -13 -1 -87 10 -165 23 -78 13 -162 27 -188
31 l-48 6 -1 112 c-1 62 0 251 1 422 l2 309 79 91 79 90 0 253 c0 233 1 252
18 252 9 0 107 -16 217 -35z m-729 -172 c38 -27 123 -86 189 -131 149 -100
169 -116 164 -130 -4 -12 -807 -848 -1160 -1209 -142 -145 -235 -233 -247
-233 -16 0 -209 33 -596 103 l-70 12 -103 199 c-57 110 -103 203 -103 208 0
13 33 9 330 -41 l285 -49 90 92 c50 50 140 146 200 213 61 66 254 280 429 475
469 519 497 550 511 544 7 -2 44 -27 81 -53z m-2516 -231 l45 -8 3 -298 2
-298 -22 5 c-13 3 -49 9 -80 12 l-58 7 0 300 0 299 33 -6 c17 -3 52 -9 77 -13z
m-2855 -220 c82 -114 358 -476 480 -630 l85 -107 0 -517 c0 -285 -3 -518 -7
-518 -24 0 -619 94 -625 99 -8 7 -16 1771 -8 1770 3 0 36 -44 75 -97z m1270
-217 c61 -76 115 -145 121 -153 7 -10 78 -26 202 -46 l191 -31 -176 -205 c-97
-113 -189 -220 -205 -239 l-29 -33 -102 17 c-56 9 -112 19 -124 22 -14 3 -51
49 -106 131 -47 70 -130 192 -186 272 -97 137 -101 145 -84 161 10 10 90 81
178 158 l160 140 25 -28 c14 -15 75 -90 135 -166z m4293 -1120 c-2 -695 -6
-880 -15 -880 -7 0 -82 77 -166 171 l-154 171 -6 378 c-4 208 -7 497 -7 643
l0 264 87 96 c48 54 125 139 172 190 l86 92 3 -122 c1 -68 1 -519 0 -1003z
m-3403 836 c94 -17 377 -64 630 -107 253 -42 465 -81 472 -86 7 -5 58 -98 114
-206 56 -109 124 -239 152 -291 l50 -94 -49 6 c-27 4 -220 36 -429 72 -209 36
-643 109 -965 162 -322 52 -588 99 -592 102 -3 3 63 89 149 191 258 309 240
290 271 285 15 -3 104 -18 197 -34z m2933 -1326 c-2 -1 -58 7 -125 18 l-123
20 0 414 0 415 123 129 122 129 3 -562 c1 -309 1 -562 0 -563z m-3245 554
c115 -18 105 13 102 -315 -2 -157 -5 -287 -7 -288 -2 -2 -47 4 -100 13 l-98
16 0 292 c0 259 2 293 16 293 8 0 48 -5 87 -11z m477 -298 c321 -51 957 -152
979 -157 21 -4 15 -12 -65 -89 -49 -46 -96 -84 -105 -85 -21 0 -1019 149
-1036 155 -9 3 -13 34 -13 108 l0 104 58 -9 c31 -4 113 -17 182 -27z m-78
-311 c73 -11 234 -36 358 -55 124 -20 278 -44 342 -53 64 -10 119 -20 122 -23
8 -8 16 -198 8 -203 -4 -2 -59 5 -122 15 -63 11 -277 44 -475 75 -198 30 -368
57 -377 60 -16 5 -18 19 -18 105 0 80 3 99 14 99 8 0 75 -9 148 -20z"/>
<path d="M3810 6929 c-8 -5 -91 -43 -184 -84 -93 -40 -172 -78 -177 -82 -4 -4
2 -53 13 -108 19 -95 26 -110 152 -329 130 -227 132 -229 216 -300 47 -39 126
-105 175 -147 462 -391 567 -479 680 -573 72 -60 150 -127 175 -149 l45 -39
-60 -54 -60 -54 24 -43 c26 -45 324 -513 375 -587 17 -25 32 -47 33 -49 3 -4
527 221 606 260 37 19 57 35 57 47 0 10 19 34 43 53 58 49 261 240 265 250 2
5 -21 41 -50 81 -30 40 -57 78 -61 85 -4 7 49 58 140 134 140 117 302 255 553
469 164 140 301 289 426 461 12 17 37 47 57 68 l36 39 -32 46 c-22 31 -37 44
-47 40 -21 -9 -478 -141 -575 -166 -53 -14 -95 -32 -130 -57 -27 -21 -84 -62
-125 -93 -91 -67 -640 -461 -658 -472 -9 -5 -42 18 -101 72 l-87 80 -91 -69
-90 -70 -87 91 c-47 49 -124 129 -169 177 -407 431 -526 555 -574 600 -50 47
-395 297 -595 431 -79 53 -92 58 -118 41z m183 -226 c51 -37 166 -120 257
-185 153 -110 180 -135 369 -336 113 -119 299 -318 415 -441 116 -123 214
-229 218 -236 4 -7 -12 -31 -42 -60 l-48 -48 -25 19 c-14 11 -201 165 -417
344 -217 179 -445 368 -508 420 l-115 95 -54 125 c-30 69 -75 175 -100 235
-25 61 -47 116 -50 123 -9 21 5 13 100 -55z m2821 -662 c10 -16 -170 -176
-429 -383 -143 -114 -351 -281 -463 -372 -111 -92 -204 -166 -207 -166 -3 0
-5 44 -4 98 l0 97 241 170 c132 94 299 212 372 263 402 285 470 326 490 293z
m-1217 -553 c29 -29 53 -58 53 -65 0 -7 -34 -36 -75 -65 l-75 -52 0 -167 0
-167 33 -15 c17 -8 62 -27 99 -42 l67 -27 33 23 c18 12 65 46 105 76 39 29 74
53 77 53 10 0 66 -82 66 -96 0 -14 -40 -38 -225 -134 -66 -35 -129 -69 -139
-76 -18 -12 -22 -10 -45 29 -13 23 -93 146 -177 274 l-152 232 139 127 c76 70
139 131 139 136 0 20 28 4 77 -44z"/>
<path d="M3575 4420 c-137 -82 -256 -153 -264 -158 -12 -6 0 -34 57 -138 39
-71 76 -135 81 -143 7 -10 67 25 270 159 143 95 261 176 261 179 0 13 -138
245 -146 247 -5 1 -121 -65 -259 -146z"/>
<path d="M6955 3934 l-108 -116 238 -238 c136 -136 244 -236 252 -233 7 3 65
64 129 136 l117 131 -54 49 c-78 70 -448 382 -458 385 -4 1 -56 -50 -116 -114z"/>
<path d="M4343 3528 c-217 -357 -247 -408 -237 -418 41 -40 192 -152 211 -156
18 -5 28 -1 41 17 25 35 332 589 332 598 0 8 -205 171 -214 171 -2 0 -62 -96
-133 -212z"/>
<path d="M6336 3370 c-65 -49 -120 -90 -122 -92 -2 -2 42 -107 97 -234 55
-126 119 -271 141 -321 22 -51 44 -93 48 -93 13 0 300 220 300 230 0 7 -262
494 -308 573 -9 15 -21 27 -27 26 -5 0 -63 -40 -129 -89z"/>
</g>
</svg>
