<?xml version="1.0" standalone="no"?>
<!DOCTYPE svg PUBLIC "-//W3C//DTD SVG 20010904//EN"
 "http://www.w3.org/TR/2001/REC-SVG-20010904/DTD/svg10.dtd">
<svg version="1.0" xmlns="http://www.w3.org/2000/svg"
 width="1024.000000pt" height="1024.000000pt" viewBox="0 0 1024.000000 1024.000000"
 preserveAspectRatio="xMidYMid meet">

<g transform="translate(0.000000,1024.000000) scale(0.100000,-0.100000)"
fill="#000000" stroke="none">
<path d="M1575 9071 c-247 -138 -457 -255 -465 -259 -13 -8 -15 -247 -18
-2035 l-4 -2025 84 -6 c46 -3 286 -10 533 -16 248 -6 563 -15 700 -20 138 -5
305 -10 373 -10 l122 0 0 -38 c0 -37 -4 -42 -82 -102 -45 -34 -321 -244 -615
-467 l-533 -404 0 -125 0 -124 -83 0 -84 0 -179 -252 c-98 -139 -319 -450
-491 -691 l-313 -439 0 -253 0 -252 98 -7 c312 -20 1279 -75 2827 -161 239
-14 965 -55 1760 -100 149 -9 333 -20 410 -24 129 -9 141 -8 155 9 8 10 78 87
155 171 196 214 417 457 648 711 l197 218 0 -289 0 -290 43 -5 c50 -6 1746
-97 1798 -96 35 0 37 3 155 182 184 282 318 470 792 1107 l182 245 0 2105 c0
1159 3 2233 7 2389 l6 282 -64 0 c-35 0 -404 5 -820 11 l-757 11 -118 -86
c-66 -47 -229 -167 -363 -266 -134 -99 -246 -180 -249 -180 -3 0 -1 134 2 298
l8 297 -315 188 -314 188 5 419 5 420 -619 0 c-341 0 -666 2 -724 5 -58 2
-847 7 -1755 10 l-1650 6 -450 -250z m3075 104 c289 -3 826 -5 1194 -5 561 -1
667 -3 655 -14 -8 -7 -117 -82 -243 -166 l-229 -153 -1661 6 c-914 4 -1935 10
-2269 14 l-608 6 58 34 c32 19 162 92 288 163 l230 129 1030 -4 c567 -3 1266
-7 1555 -10z m1972 -386 l-3 -270 -32 19 c-18 11 -114 69 -215 130 l-182 109
212 142 c117 77 215 141 218 141 3 0 4 -122 2 -271z m-1777 -95 c627 -4 1142
-8 1144 -10 5 -4 1 -3937 -4 -3942 -2 -2 -149 1 -327 7 -352 12 -1098 35
-1658 51 -195 6 -553 17 -795 25 -242 8 -721 24 -1065 35 -344 11 -689 23
-767 26 l-143 6 0 1172 c0 645 3 1505 7 1911 l6 738 1231 -6 c677 -4 1744 -10
2371 -13z m1768 -1655 c-4 -717 -10 -1252 -13 -1189 -9 200 2 2512 12 2502 6
-6 6 -524 1 -1313z m2559 822 l286 -6 -311 -265 c-171 -146 -351 -301 -401
-344 l-90 -79 -321 6 c-176 4 -502 7 -725 7 l-405 0 174 128 c95 70 304 224
465 344 l291 216 375 0 c206 -1 504 -4 662 -7z m314 -4735 c-63 -83 -225 -295
-361 -471 -135 -176 -264 -346 -285 -379 -34 -50 -40 -55 -40 -33 0 19 109
167 385 526 l385 500 0 2187 c0 1203 -1 2189 -3 2191 -2 1 -64 -50 -138 -115
-74 -65 -248 -215 -386 -335 -217 -186 -253 -213 -253 -192 0 19 36 55 173
172 94 81 259 224 366 318 107 93 210 184 230 201 l36 32 3 -2226 2 -2226
-114 -150z m-1681 3914 c330 -6 651 -10 713 -10 l112 0 0 -2595 0 -2595 -67 0
c-38 0 -187 7 -333 15 -146 8 -476 26 -735 40 -258 13 -497 28 -529 31 l-59 6
6 487 c4 267 7 1420 7 2562 l0 2075 143 -3 c78 -2 412 -8 742 -13z m-1030
-3028 l-7 -53 -136 3 -137 3 -3 254 -2 254 -185 -5 c-101 -3 -283 -2 -404 2
l-219 7 -107 63 c-58 34 -104 64 -102 67 2 2 123 -1 268 -7 145 -5 281 -10
301 -10 l37 0 92 163 c50 89 207 360 348 602 l256 439 3 -864 c2 -476 0 -889
-3 -918z m-3255 608 c91 -5 338 -19 550 -30 212 -12 390 -23 397 -25 9 -3 13
-56 15 -191 l3 -186 -120 6 c-96 5 -1279 56 -1307 56 -5 0 -8 88 -8 196 l0
197 153 -7 c83 -4 226 -11 317 -16z m1752 -90 c51 -33 93 -64 93 -68 0 -8
-599 -602 -607 -602 -3 0 -33 56 -67 125 l-62 124 39 36 c62 55 507 445 509
445 1 0 44 -27 95 -60z m-2380 -205 l-3 -114 -146 -161 -146 -162 -196 7
c-108 4 -198 9 -201 12 -3 2 3 9 13 14 10 6 45 34 79 62 65 54 589 454 598
456 3 1 4 -51 2 -114z m3227 9 l95 -6 -60 -57 c-32 -31 -183 -173 -334 -315
-151 -143 -307 -290 -346 -328 l-70 -69 -730 31 c-1575 66 -1917 80 -2129 90
-121 5 -309 12 -417 16 -109 4 -195 10 -192 15 3 5 24 22 47 37 l42 29 250
-13 c362 -19 1034 -47 1890 -79 220 -8 477 -18 572 -22 l172 -6 58 49 c57 48
352 313 590 532 l124 113 172 -6 c95 -3 215 -8 266 -11z m70 -925 c-89 -93
-168 -169 -176 -169 -8 0 60 78 151 173 l166 172 0 312 c0 171 3 320 8 330 4
10 8 -132 10 -316 l2 -333 -161 -169z m-2489 666 c190 -8 444 -17 566 -21
l220 -7 72 -118 c40 -65 72 -119 72 -121 0 -2 -188 4 -417 13 -230 9 -646 25
-925 35 l-507 18 107 113 107 114 180 -6 c99 -3 335 -12 525 -20z m-1440 -520
c206 -8 584 -24 840 -35 256 -10 865 -36 1355 -56 490 -20 891 -37 892 -38 1
-1 3 -35 4 -76 l2 -75 -69 3 c-38 1 -463 20 -944 42 -481 22 -1140 51 -1465
65 -324 15 -696 31 -825 38 l-235 12 -3 68 -3 67 38 0 c21 0 207 -7 413 -15z
m-170 -270 c184 -8 592 -26 905 -40 314 -13 602 -27 640 -30 39 -3 284 -14
545 -25 261 -11 509 -22 550 -25 41 -3 228 -12 415 -20 187 -9 471 -22 630
-30 160 -7 358 -17 442 -21 l152 -6 -19 -38 c-11 -21 -122 -213 -248 -427
-125 -213 -281 -479 -346 -590 -106 -182 -121 -203 -145 -203 -43 0 -445 20
-816 41 -404 22 -1143 61 -1585 84 -168 8 -467 24 -665 35 -762 42 -1289 70
-1515 80 -129 6 -254 13 -278 16 l-42 5 24 32 c13 18 135 190 271 382 258 363
470 661 538 753 l39 53 86 -6 c48 -3 238 -12 422 -20z m4338 -953 c-239 -294
-658 -791 -658 -780 0 8 30 50 68 94 290 344 625 759 633 787 5 17 10 158 11
312 l3 280 2 -308 3 -308 -62 -77z m-5083 -412 c570 -31 1274 -69 1760 -95
149 -8 412 -21 585 -30 311 -15 533 -27 1235 -65 198 -11 414 -22 480 -25 66
-3 144 -8 173 -11 l52 -5 0 -140 0 -139 -47 0 c-27 0 -203 9 -393 20 -825 48
-1217 70 -1395 80 -104 6 -300 17 -435 25 -135 8 -373 21 -530 30 -157 8 -397
22 -535 30 -367 21 -742 42 -1160 65 -203 11 -394 22 -422 26 l-53 5 0 136 0
135 63 -6 c34 -4 314 -20 622 -36z"/>
<path d="M1597 7784 c-12 -1086 -9 -2594 6 -2594 110 -1 2317 -70 3202 -100
165 -6 415 -11 555 -13 l255 -2 3 1646 4 1646 -729 6 c-400 4 -1304 10 -2009
14 l-1281 6 -6 -609z m214 369 l79 -77 -2 -1258 -3 -1259 -35 -27 c-19 -15
-54 -44 -77 -66 l-43 -38 -2 1401 c-2 770 -1 1401 1 1401 2 0 39 -35 82 -77z
m574 -2698 c149 -3 506 -12 795 -20 289 -8 696 -19 905 -25 209 -5 454 -12
545 -15 91 -3 284 -7 430 -10 146 -3 288 -8 316 -11 l51 -5 42 -76 41 -76
-243 7 c-133 3 -363 11 -512 16 -148 5 -378 12 -510 15 -248 6 -579 16 -1200
35 -198 7 -553 17 -790 23 l-430 12 90 72 90 72 55 -4 c30 -2 177 -7 325 -10z"/>
<path d="M7160 6258 l0 -546 23 -6 c12 -3 43 -6 69 -6 l48 0 2 543 c2 298 2
543 2 545 -1 2 -34 6 -73 9 l-71 6 0 -545z"/>
<path d="M7426 6255 c-4 -295 -4 -540 -1 -545 3 -6 34 -10 69 -10 l63 0 6 197
c4 108 7 350 7 538 l0 343 -31 6 c-17 3 -48 6 -69 6 l-37 0 -7 -535z"/>
<path d="M7690 6239 l0 -537 23 -6 c12 -3 43 -6 70 -6 l47 0 0 539 0 539 -70
4 -70 3 0 -536z"/>
<path d="M7950 6225 l0 -545 70 0 70 0 2 539 3 539 -35 6 c-19 3 -52 6 -72 6
l-38 0 0 -545z"/>
<path d="M8210 6220 l0 -540 70 0 70 0 0 540 0 540 -70 0 -70 0 0 -540z"/>
<path d="M7166 5393 c-3 -4 -6 -109 -6 -235 l0 -228 88 0 c48 0 290 -9 537
-20 248 -11 476 -20 508 -20 l57 0 0 235 0 235 -69 0 c-76 0 -859 26 -1012 34
-53 3 -99 2 -103 -1z m529 -153 c165 -6 351 -13 413 -16 l112 -6 0 -95 0 -95
-97 6 c-54 3 -222 11 -373 16 -151 6 -317 13 -367 16 l-93 6 0 89 0 89 53 0
c28 0 187 -4 352 -10z"/>
<path d="M8000 4489 l0 -86 53 -7 c28 -3 78 -6 110 -6 l57 0 0 -90 0 -90 65 0
65 0 0 175 c0 160 -2 175 -17 176 -10 1 -89 4 -176 7 l-157 7 0 -86z"/>
<path d="M8005 3932 c-155 -72 -168 -284 -23 -379 36 -24 52 -28 114 -28 64 0
77 3 116 30 169 119 95 380 -110 392 -41 3 -69 -2 -97 -15z m137 -149 c22 -20
23 -70 1 -95 -24 -27 -79 -24 -99 7 -40 62 43 138 98 88z"/>
<path d="M7160 2720 l0 -650 31 0 c25 0 942 -51 1117 -62 l42 -3 -2 655 -3
655 -75 3 c-41 1 -298 14 -571 27 -273 14 -505 25 -517 25 l-22 0 0 -650z
m645 475 c182 -9 350 -18 374 -21 l44 -6 -6 -121 c-4 -67 -7 -295 -7 -506 l0
-383 -72 6 c-40 3 -219 13 -398 21 -179 8 -353 18 -387 21 l-63 6 0 505 0 505
93 -6 c50 -3 241 -13 422 -21z"/>
<path d="M7480 2715 c0 -155 3 -207 13 -210 13 -5 529 -36 533 -32 1 1 4 97 6
212 l3 210 -215 12 c-118 6 -243 12 -277 12 l-63 1 0 -205z m413 15 c4 -4 5
-30 1 -59 l-7 -51 -57 0 c-31 0 -91 3 -133 6 l-77 7 0 59 0 59 133 -7 c72 -4
136 -10 140 -14z"/>
<path d="M1563 2978 c-213 -308 -483 -705 -483 -711 0 -8 122 -16 535 -37 646
-32 990 -50 1180 -60 99 -6 439 -23 755 -40 316 -16 603 -32 638 -34 l63 -5
72 98 c40 54 119 175 177 269 l105 171 110 -6 c61 -3 111 -7 113 -8 2 -2 -175
-293 -288 -473 -18 -29 -31 -54 -29 -56 4 -3 289 -20 614 -36 105 -5 231 -12
281 -16 l92 -6 178 299 c351 589 384 646 382 648 -2 2 -115 8 -253 14 -137 6
-349 16 -471 23 -144 7 -227 7 -238 1 -10 -5 -52 -66 -95 -134 l-77 -124 -109
3 c-60 1 -110 4 -112 6 -2 2 19 48 46 104 66 132 70 150 39 156 -12 3 -221 15
-463 26 -242 11 -530 24 -640 30 -276 14 -567 27 -990 45 -408 17 -890 42
-951 50 l-40 6 -141 -203z m435 43 c22 -6 22 -7 -20 -69 -41 -60 -44 -63 -78
-57 -19 2 -74 5 -123 5 l-87 0 42 65 43 65 100 -1 c55 -1 110 -5 123 -8z m365
-21 l118 0 -43 -62 -44 -63 -85 3 c-46 1 -108 5 -137 8 l-52 5 42 60 c33 48
46 59 62 55 12 -3 74 -6 139 -6z m470 -20 l77 0 -42 -65 -43 -65 -125 6 c-69
4 -127 8 -128 10 -2 1 15 30 38 64 l42 62 52 -6 c28 -3 86 -6 129 -6z m485
-25 c2 -2 -15 -31 -38 -64 l-41 -61 -82 5 c-45 3 -101 8 -124 11 l-42 5 46 61
46 60 116 -7 c64 -4 118 -9 119 -10z m451 -20 c2 -2 -14 -32 -34 -65 l-38 -62
-91 6 c-50 4 -117 9 -148 12 l-57 6 47 60 47 59 135 -6 c74 -4 137 -9 139 -10z
m409 -21 c2 -1 -15 -30 -38 -65 l-42 -62 -117 8 c-64 4 -118 8 -119 10 -2 2
15 31 38 65 l41 61 117 -7 c64 -4 119 -8 120 -10z m419 -18 c0 0 -15 -29 -35
-64 l-37 -62 -120 6 c-66 4 -122 8 -123 10 -2 1 15 30 39 63 l43 61 115 -6
c64 -4 117 -7 118 -8z m810 -30 c1 -1 -16 -30 -39 -64 l-41 -62 -124 0 -125 0
21 33 c12 17 31 49 43 70 l22 38 121 -7 c66 -4 121 -7 122 -8z m412 -22 c2 -2
-14 -31 -36 -65 l-39 -61 -119 1 c-66 1 -121 4 -123 6 -2 2 16 33 40 69 l43
66 115 -6 c63 -4 117 -8 119 -10z m-4067 -81 l96 -6 -44 -67 -45 -67 -127 5
c-70 2 -128 6 -130 7 -2 2 18 33 45 69 54 74 40 70 205 59z m536 -28 c2 -1
-18 -32 -43 -69 l-47 -66 -71 5 c-40 3 -100 8 -134 11 l-62 5 47 66 47 65 130
-7 c72 -4 131 -8 133 -10z m440 -20 c2 -2 -18 -32 -44 -68 l-48 -65 -130 5
c-72 3 -132 7 -134 8 -2 2 16 33 40 70 l43 66 135 -7 c74 -3 136 -8 138 -9z
m419 -19 c1 -1 -18 -33 -43 -70 l-46 -69 -67 7 c-36 3 -92 6 -124 6 l-58 0 48
70 48 69 120 -6 c66 -3 121 -7 122 -7z m361 -14 l82 -7 -46 -68 c-38 -58 -49
-68 -67 -63 -12 3 -75 6 -139 6 -65 0 -118 4 -118 8 0 4 20 36 45 70 l45 62
58 -1 c31 -1 94 -4 140 -7z m465 -22 l38 0 -48 -70 -48 -70 -110 6 c-60 4
-112 8 -114 10 -2 2 16 33 40 70 l43 67 81 -7 c44 -3 97 -6 118 -6z m452 -31
c2 -3 -13 -33 -33 -67 l-37 -62 -130 6 c-71 4 -131 8 -132 9 -2 1 17 30 42 66
l44 64 121 -6 c66 -3 122 -8 125 -10z m799 -57 c-10 -15 -29 -44 -43 -65 l-25
-39 -110 7 c-61 4 -112 9 -114 10 -4 3 43 79 64 105 10 12 35 14 129 12 l116
-3 -17 -27z m434 3 c2 -2 -16 -32 -40 -68 -37 -56 -47 -65 -68 -62 -14 3 -69
7 -122 11 -54 3 -98 7 -98 9 0 2 18 31 40 64 l41 61 122 -6 c67 -4 123 -8 125
-9z m-3999 -81 c1 -1 -17 -31 -42 -65 l-44 -62 -74 2 c-41 1 -97 5 -125 9
l-52 7 45 63 46 63 121 -7 c66 -4 123 -8 125 -10z m428 -28 c2 -2 -14 -30 -37
-62 -31 -44 -47 -58 -63 -57 -12 1 -70 5 -129 8 l-108 7 42 60 43 61 124 -6
c68 -4 126 -9 128 -11z m578 -26 c116 -5 403 -17 638 -26 236 -9 449 -19 473
-22 l44 -7 -40 -60 c-22 -33 -41 -64 -43 -68 -1 -4 -209 4 -462 18 -253 14
-602 32 -775 41 -173 9 -316 18 -318 19 -2 2 16 31 40 65 l43 61 95 -5 c52 -3
190 -10 305 -16z m1592 -75 c2 -1 -16 -32 -40 -69 l-42 -67 -130 6 c-71 4
-132 8 -134 10 -2 2 18 34 44 70 l47 67 127 -7 c69 -4 127 -8 128 -10z m820
-38 c1 -2 -16 -33 -40 -70 l-42 -67 -51 0 c-28 0 -85 3 -127 6 l-77 7 22 36
c12 20 32 52 44 71 l21 35 124 -7 c67 -5 124 -10 126 -11z m421 -22 c2 -2 -17
-35 -43 -73 l-45 -71 -123 6 c-67 3 -124 7 -126 9 -2 2 16 34 39 72 l43 70
126 -5 c69 -3 127 -7 129 -8z"/>
</g>
</svg>
