<?xml version="1.0" standalone="no"?>
<!DOCTYPE svg PUBLIC "-//W3C//DTD SVG 20010904//EN"
 "http://www.w3.org/TR/2001/REC-SVG-20010904/DTD/svg10.dtd">
<svg version="1.0" xmlns="http://www.w3.org/2000/svg"
 width="1024.000000pt" height="1024.000000pt" viewBox="0 0 1024.000000 1024.000000"
 preserveAspectRatio="xMidYMid meet">

<g transform="translate(0.000000,1024.000000) scale(0.100000,-0.100000)"
fill="#000000" stroke="none">
<path d="M2198 9359 l-118 -111 0 -2071 0 -2072 118 -118 117 -117 580 -2 580
-3 3 -152 3 -153 -613 0 -612 0 -355 -164 c-196 -90 -386 -179 -423 -196 l-68
-32 0 -626 0 -625 -94 -151 c-51 -83 -176 -284 -277 -446 -100 -162 -238 -384
-306 -493 l-123 -199 0 -379 0 -379 3625 0 3625 0 477 383 c263 210 556 446
650 522 l173 140 0 1323 0 1322 -1060 0 -1060 0 0 155 0 155 481 0 481 0 234
228 233 227 1 1803 0 1802 -32 34 c-18 19 -142 140 -276 270 l-242 236 -2803
0 -2802 0 -117 -111z m5583 -283 c2 -2 3 -864 1 -1915 l-2 -1911 -2665 0
-2665 0 0 1915 0 1915 2663 0 c1465 0 2666 -2 2668 -4z m-1391 -4361 l0 -155
-1270 0 -1270 0 0 155 0 155 1270 0 1270 0 0 -155z m1750 -1100 l0 -565 -3185
0 -3185 0 0 565 0 565 3185 0 3185 0 0 -565z m-71 -972 c-61 -108 -612 -1028
-623 -1041 -9 -9 -662 -12 -3224 -10 l-3212 3 288 460 c158 253 312 502 342
552 l55 92 3203 1 3203 0 -32 -57z"/>
<path d="M2802 7163 l3 -1568 2313 -3 2312 -2 0 1570 0 1570 -2315 0 -2315 0
2 -1567z m4258 -3 l0 -1190 -1945 0 -1945 0 0 1190 0 1190 1945 0 1945 0 0
-1190z"/>
<path d="M5060 3645 l0 -195 185 0 185 0 -2 193 -3 192 -182 3 -183 2 0 -195z"/>
<path d="M5780 3838 c0 -2 -1 -88 -2 -193 l-2 -190 185 -3 184 -2 -2 117 c-1
65 -2 153 -2 196 l-1 77 -180 0 c-99 0 -180 -1 -180 -2z"/>
<path d="M6490 3645 l0 -195 190 0 190 0 0 195 0 195 -190 0 -190 0 0 -195z"/>
<path d="M7220 3645 l0 -195 190 0 190 0 0 195 0 195 -190 0 -190 0 0 -195z"/>
<path d="M2159 3753 c-1 -5 -2 -83 -3 -175 l-1 -168 847 0 848 0 0 175 0 175
-845 0 c-465 0 -846 -3 -846 -7z"/>
<path d="M1929 2388 c-34 -57 -69 -113 -77 -125 l-14 -23 210 0 210 0 75 125
75 125 -208 0 -208 0 -63 -102z"/>
<path d="M2686 2468 c-11 -18 -96 -159 -133 -220 -2 -5 92 -8 209 -8 l213 0
70 118 c39 64 72 120 73 125 2 4 -91 7 -207 7 -207 0 -211 0 -225 -22z"/>
<path d="M3364 2403 c-29 -49 -62 -105 -74 -125 l-22 -38 2011 0 2011 0 26 43
c14 23 47 79 74 125 l48 82 -2012 0 -2011 0 -51 -87z"/>
<path d="M1667 1965 c-39 -66 -73 -123 -75 -127 -2 -5 95 -8 215 -8 l218 0 73
125 c39 68 72 126 72 129 0 3 -97 4 -215 3 l-215 -2 -73 -120z"/>
<path d="M2462 2077 c-6 -7 -42 -65 -81 -130 l-70 -117 2372 2 2372 3 72 120
c40 66 72 123 73 127 0 4 -1064 7 -2364 7 -1813 0 -2367 -3 -2374 -12z"/>
</g>
</svg>
