<?xml version="1.0" standalone="no"?>
<!DOCTYPE svg PUBLIC "-//W3C//DTD SVG 20010904//EN"
 "http://www.w3.org/TR/2001/REC-SVG-20010904/DTD/svg10.dtd">
<svg version="1.0" xmlns="http://www.w3.org/2000/svg"
 width="1024.000000pt" height="1024.000000pt" viewBox="0 0 1024.000000 1024.000000"
 preserveAspectRatio="xMidYMid meet">

<g transform="translate(0.000000,1024.000000) scale(0.100000,-0.100000)"
fill="#000000" stroke="none">
<path d="M3017 9673 c-4 -3 -7 -123 -7 -265 l0 -258 2105 0 2105 0 0 265 0
265 -2098 0 c-1154 0 -2102 -3 -2105 -7z"/>
<path d="M2842 8698 c-77 -128 -153 -255 -170 -283 -22 -36 -35 -76 -46 -145
-83 -495 -337 -1944 -537 -3060 -44 -245 -100 -560 -125 -700 -45 -253 -81
-452 -274 -1525 -55 -307 -141 -778 -191 -1045 -50 -267 -93 -498 -95 -515 -4
-26 5 -40 78 -118 l83 -89 89 -15 c48 -8 91 -11 96 -6 4 4 76 337 160 738 84
402 184 876 222 1055 188 886 290 1366 403 1905 161 767 274 1303 336 1595 28
129 84 399 125 600 80 393 216 1041 320 1526 35 166 64 305 64 308 0 3 -90 6
-200 6 l-199 0 -139 -232z"/>
<path d="M3637 8923 c-6 -9 -96 -435 -262 -1238 -63 -302 -132 -638 -155 -745
-23 -107 -83 -397 -135 -645 -80 -386 -214 -1018 -390 -1850 -25 -115 -70
-329 -101 -475 -30 -146 -91 -431 -135 -635 -44 -203 -161 -750 -260 -1215
-99 -465 -187 -872 -194 -905 -8 -32 -13 -60 -12 -61 3 -2 355 -64 366 -64 11
0 22 48 106 445 85 401 190 893 315 1480 182 847 319 1490 450 2105 71 333
152 711 180 840 28 129 73 339 100 465 74 348 230 1069 233 1076 5 12 232 -58
235 -73 3 -18 -132 -655 -427 -2013 -44 -203 -137 -635 -206 -960 -69 -324
-150 -702 -180 -840 -29 -137 -88 -412 -130 -610 -42 -198 -93 -441 -115 -540
-70 -319 -300 -1410 -300 -1420 0 -3 9 -5 20 -5 10 0 105 -16 210 -35 105 -19
202 -35 215 -35 14 0 68 27 120 61 l95 61 64 201 c36 111 152 481 260 822 107
341 246 784 310 985 63 201 169 541 236 755 67 215 161 516 210 670 48 154
118 377 155 495 37 118 116 370 175 560 131 416 218 697 299 967 l61 202 0
1090 0 1091 -704 0 c-388 0 -707 -3 -709 -7z"/>
<path d="M5190 8873 c0 -32 -1 -525 -1 -1095 l-1 -1036 57 -189 c92 -306 215
-700 600 -1923 405 -1288 834 -2655 888 -2830 155 -498 218 -694 229 -708 7
-8 52 -41 99 -73 l87 -58 229 41 c125 22 232 44 237 49 5 4 -14 114 -44 251
-68 318 -160 748 -254 1183 -42 193 -109 508 -150 700 -41 193 -129 602 -196
910 -66 308 -254 1180 -416 1938 -162 758 -297 1384 -300 1391 -3 8 34 23 108
44 62 18 118 32 123 32 6 0 25 -69 43 -152 19 -84 72 -331 118 -548 47 -217
109 -507 139 -645 72 -335 159 -740 311 -1450 69 -324 155 -725 190 -890 36
-165 75 -352 89 -415 13 -63 46 -218 74 -345 73 -336 242 -1125 296 -1385 26
-124 64 -304 85 -400 l38 -175 38 2 c41 3 326 53 333 59 2 1 -33 173 -77 381
-45 208 -119 560 -166 783 -48 223 -90 423 -95 445 -6 22 -62 285 -126 585
-64 300 -179 838 -255 1195 -182 848 -354 1667 -490 2325 -32 157 -99 479
-149 715 -81 389 -156 748 -245 1185 l-32 155 -707 3 -707 2 0 -57z"/>
<path d="M6859 8923 c-1 -5 -1 -10 -1 -13 0 -3 37 -178 82 -390 101 -473 210
-993 296 -1410 36 -173 78 -376 94 -450 77 -354 207 -974 260 -1236 33 -160
89 -430 125 -600 36 -170 108 -511 160 -759 52 -247 119 -567 149 -710 30
-143 136 -647 235 -1120 226 -1074 218 -1035 224 -1041 7 -7 168 16 188 27 9
5 51 46 93 93 l77 84 -65 348 c-36 192 -101 552 -146 799 -44 248 -133 736
-196 1085 -165 916 -230 1276 -258 1435 -14 77 -43 244 -66 370 -23 127 -106
599 -185 1050 -79 451 -183 1038 -231 1305 -47 267 -88 503 -91 525 -4 28 -56
125 -177 327 l-171 288 -197 0 c-109 0 -199 -3 -199 -7z"/>
<path d="M1585 1008 c-7 -21 -76 -391 -73 -393 4 -4 185 -38 473 -90 138 -24
391 -69 563 -100 173 -31 316 -55 318 -52 9 9 87 397 82 403 -8 7 -259 53
-1043 189 -143 25 -272 48 -288 51 -18 4 -29 1 -32 -8z"/>
<path d="M8525 1000 c-55 -10 -305 -55 -555 -99 -699 -125 -680 -121 -680
-138 0 -24 73 -377 79 -385 3 -4 107 11 231 33 124 21 304 53 400 70 316 55
712 128 717 133 2 2 -10 82 -27 177 -41 232 -40 229 -53 228 -7 -1 -57 -9
-112 -19z"/>
</g>
</svg>
